/* XPM */
static char *result[] = {
/* columns rows colors chars-per-pixel */
"43 114 207 2 ",
"   c #000000",
".  c #090807",
"X  c #120D0B",
"o  c #160000",
"O  c #15110B",
"+  c #161409",
"@  c #050716",
"#  c #0D141C",
"$  c #141518",
"%  c #001600",
"&  c #330D00",
"*  c #3A1700",
"=  c #251B0E",
"-  c #0C2000",
";  c #3C2308",
":  c #2C271A",
">  c #38331A",
",  c #0F1621",
"<  c #0F1825",
"1  c #111723",
"2  c #121926",
"3  c #141C2B",
"4  c #001838",
"5  c #0D0029",
"6  c #25002F",
"7  c #1B263A",
"8  c #1E2A3E",
"9  c #1B2435",
"0  c #102D37",
"q  c #342B23",
"w  c #373838",
"e  c #262A31",
"r  c #421800",
"t  c #492904",
"y  c #472D13",
"u  c #543212",
"i  c #5C3917",
"p  c #522E05",
"a  c #663E18",
"s  c #46392D",
"d  c #49392C",
"f  c #5A3E3D",
"g  c #533B28",
"h  c #44451D",
"j  c #414704",
"k  c #6B411A",
"l  c #6D4217",
"z  c #74461A",
"x  c #7D4C1E",
"c  c #77481B",
"v  c #6F771F",
"b  c #4B4A21",
"n  c #464622",
"m  c #575625",
"M  c #5A413D",
"N  c #7E4E22",
"B  c #634C39",
"V  c #66503F",
"C  c #69682C",
"Z  c #797537",
"A  c #6C7021",
"S  c #001D40",
"D  c #000F4D",
"F  c #002246",
"G  c #1E2B41",
"H  c #182B4F",
"J  c #142D53",
"K  c #192F53",
"L  c #1E3052",
"P  c #202D44",
"I  c #212F48",
"U  c #24324A",
"Y  c #283349",
"T  c #263752",
"R  c #2A3A55",
"E  c #2B3C59",
"W  c #243657",
"Q  c #383C4C",
"!  c #2B3F60",
"~  c #553545",
"^  c #563946",
"/  c #583A45",
"(  c #374351",
")  c #2E4364",
"_  c #2F4669",
"`  c #314565",
"'  c #364866",
"]  c #314669",
"[  c #35496A",
"{  c #3C4D69",
"}  c #444344",
"|  c #5E4440",
" . c #575756",
".. c #4C4E52",
"X. c #6A5545",
"o. c #745A46",
"O. c #775E4B",
"+. c #70564E",
"@. c #7B614D",
"#. c #7B6454",
"$. c #6D6D6C",
"%. c #696764",
"&. c #6B757B",
"*. c #727272",
"=. c #727A7E",
"-. c #7B7B7B",
";. c #6A6D71",
":. c #824F1E",
">. c #85511E",
",. c #89531F",
"<. c #855223",
"1. c #8A5422",
"2. c #895628",
"3. c #895424",
"4. c #856A53",
"5. c #876A59",
"6. c #93745D",
"7. c #9D775A",
"8. c #896F4E",
"9. c #A57D5D",
"0. c #926D64",
"q. c #9A7965",
"w. c #987964",
"e. c #8E6B62",
"r. c #A67F62",
"t. c #7D802F",
"y. c #888B32",
"u. c #959836",
"i. c #8F9034",
"p. c #9E9D42",
"a. c #A3A143",
"s. c #AFAD4C",
"d. c #AEAE46",
"f. c #B1AF4B",
"g. c #B5B44D",
"h. c #BEBC51",
"j. c #9D806B",
"k. c #A4836B",
"l. c #A6856A",
"z. c #AD8B73",
"x. c #A38471",
"c. c #B28E72",
"v. c #BD9575",
"b. c #BC957B",
"n. c #B6947B",
"m. c #B28B6C",
"M. c #C39B7D",
"N. c #C4C352",
"B. c #CCCA57",
"V. c #CDCA59",
"C. c #D1CF5A",
"Z. c #D4D25B",
"A. c #DCDA5E",
"S. c #D9D65E",
"D. c #DAD661",
"F. c #E1DE62",
"G. c #E5E365",
"H. c #EAE866",
"J. c #F7F469",
"K. c #FAF76B",
"L. c #FDFB6D",
"P. c #FFFD72",
"I. c #737C80",
"U. c #7F8283",
"Y. c #8D8D8D",
"T. c #858585",
"R. c #979898",
"E. c #BD9A84",
"W. c #979CA7",
"Q. c #A7A7A8",
"!. c #B3B3B3",
"~. c #BCBCBC",
"^. c #AEB0B1",
"/. c #C49D82",
"(. c #C89F81",
"). c #CBA182",
"_. c #C9A48A",
"`. c #D5A989",
"'. c #DAAD8C",
"]. c #D0A786",
"[. c #D7AE91",
"{. c #DEB191",
"}. c #DBB299",
"|. c #DFB08E",
" X c #EDBC9A",
".X c #E6B795",
"XX c #F1BF9C",
"oX c #F6C39E",
"OX c #F9C49E",
"+X c #F5C3A1",
"@X c #FAC6A2",
"#X c #FDCAA4",
"$X c #FECDA9",
"%X c #FFD1AB",
"&X c #FFD0A6",
"*X c #EFC0A0",
"=X c #B4B9C2",
"-X c #C4C4C4",
";X c #C9CACA",
":X c #D9D8D8",
">X c #ECECEB",
",X c #E4E4E4",
"<X c #F5F5F4",
"1X c #FFFEFE",
"2X c #F8F7F7",
"3X c #F1F0EE",
"4X c None",
/* pixels */
"4X4X4X4X4X4X4X4X4X4X4X4X4X4X4X4X4X4X4X4X4X4X4X4X4X4X4X4X4X4X4X4X4X4X4X4X4X4X4X4X4X4X4X",
"4X4X4X4X4X4X4X4X4X4X4X4X4X4X4X4X4X4X4X4X4X4X4X4X4X4X4X4X4X4X4X4X4X4X4X4X4X4X4X4X4X4X4X",
"4X4X4X4X4X4X4X4X4X4X4X4X4X4X4X4X4X4X4X4X4X4X4X4X4X4X4X4X4X4X4X4X4X4X4X4X4X4X4X4X4X4X4X",
"4X4X4X4X4X4X4X4X4X4X4X4X4X4X4X4X4X4X4X4X4X4X4X4X4X4X4X4X4X4X4X4X4X4X4X4X4X4X4X4X4X4X4X",
"4X4X4X4X4X4X4X4X4X4X4X4X4X4X4X4X4X4X4X4X4X4X4X4X4X4X4X4X4X4X4X4X4X4X4X4X4X4X4X4X4X4X4X",
"4X4X4X4X4X4X4X4X4X4X4X4X4X4X4X4X4X4X4X4X4X4X4X4X4X4X4X4X4X4X4X4X4X4X4X4X4X4X4X4X4X4X4X",
"4X4X4X4X4X4X4X4X4X4X4X4X4X4X4X4X4X4X4X4X            4X4X4X4X4X4X4X4X4X4X4X4X4X4X4X4X4X",
"4X4X4X4X4X4X4X4X4X4X4X4X4X4X4X4X4X4X  y z z z z c i   . . 4X4X4X4X4X4X4X4X4X4X4X4X4X4X",
"4X4X4X4X4X4X4X4X4X4X4X4X4X4X4X    y c c <.,.,.<.,.x l c a   4X4X4X4X4X4X4X4X4X4X4X4X4X",
"4X4X4X4X4X4X4X4X4X4X4X4X4X4X  u z x ,.,.:.,.>.>.>.,.1.,.<.a   4X4X4X4X4X4X4X4X4X4X4X4X",
"4X4X4X4X4X4X4X4X4X4X4X4X4Xu z x 1.,.:.:.>.<.N N N N N N N :.a   4X4X4X4X4X4X4X4X4X4X4X",
"4X4X4X4X4X4X4X4X4X4X4X4Xu :.,.<.>.>.<.<.1.a   o           * <.k . 4X4X4X4X4X4X4X4X4X4X",
"4X4X4X4X4X4X4X4X4X4X4Xu :.,.:.>.<.<.<.i   X.M.M.).M.M.M.M.l.      4X4X4X4X4X4X4X4X4X4X",
"4X4X4X4X4X4X4X4X4X4Xu :.,.:.>.:.<.i   @.(..X#X@X#X#X#X#X#XoX`.c.  4X4X4X4X4X4X4X4X4X4X",
"4X4X4X4X4X4X4X4X4X  a 1.:.,.>.2.r @.b.[.#X@XoXoXoXoXOXoXoXOX#XOXv.# 4X4X4X4X4X4X4X4X4X",
"4X4X4X4X4X4X4X4X  i :.,.:.:.1.t o..X$X@X+X+XOXoXOXOXOXOXOXOXOX}.B       4X4X4X4X4X4X4X",
"4X4X4X4X4X4X4X4X  k 1.>.:.1.* O.|.@XoX+XOXXX+X+X*X*X+X@XoX#X{.n ^.-X-X~.= 4X4X4X4X4X4X",
"4X4X4X4X4X4X4X4X  k ,.>.<.p @..X#X+X+XoX@XM.t g i t 5.oX#X'.X.-X1X<XR.T.^.} 4X4X4X4X4X",
"4X4X4X4X4X4X4X4X  l ,.>.<.o k.#XoX+X+X@Xv.%.~.~.~.-XR.4.@X_.0 3X1X:X    :X .4X4X4X4X4X",
"4X4X4X4X4X4X4X4X  k ,.>.<.& j.@XoXoX#XM.%.:X1X1X1X1X;X  *X_.( >X1X<X;X;X>X} 4X4X4X4X4X",
"4X4X4X4X4X4X4X4X  k ,.>.1.  w.#XOXoX#X7.=.1X2X1X:X%.Y.R.w.E.( 3X1X1X1X1X<Xw 4X4X4X4X4X",
"4X4X4X4X4X4X4X4X  k <.1.t 4.'.OXoXoX#X9.=.1X1X1X~.  $.;Xy n.0 >X1X1X1X1X>Xw 4X4X4X4X4X",
"4X4X4X4X4X4X4X4X  a 1.2.  v.#XoXoXoX#X9.=.1X1X1X,X!.:X;Xt }.x.Y.<X1X1X<XT.  4X4X4X4X4X",
"4X4X4X4X4X4X4X4X  l 1.<.  z.@XoXOXoX$X7.&.1X2X1X1X1X1X;X& [.X.@ *.&.&.;.8.q 4X4X4X4X4X",
"4X4X4X4X4X4X4X4X  a <.2.  z.@XOXoXoX@X[.@.!.1X1X1X1X,X;.b..Xn.q.  7.l.c..Xs 4X4X4X4X4X",
"4X4X4X4X4X4X4X4X  k <.2.  z.#X+X+XOX+X$X'.#.&.U.&.U.%.l.#X}.#.X.@  X$X#X X: 4X4X4X4X4X",
"4X4X4X4X4X4X4X4X4X; z 2.  c.#XOX+X+X+X+X&X|.7.l.l.7.n.@X@X.Xr.x.c. XoXOXoXq 4X4X4X4X4X",
"4X4X4X4X4X4X4X4X4X  l 2.  c.@XoXOXOXOXoXOXOXOX&XOX#X#XoX+X+X$X#XOXOXOX X6.X 4X4X4X4X4X",
"4X4X4X4X4X4X4X4X4X4X; N   z.#XOXOXOXoXoXoXOXoXoXoXoXOX+X+X+X@X#X#X@X$X}.  4X4X4X4X4X4X",
"4X4X4X4X4X4X4X4X4X4X4Xy   n.#XoXOXOXoXoXoXOXOXOXOXOX@X@X@X.X4.O.@.6.XX.Xq 4X4X4X4X4X4X",
"4X4X4X4X4X4X4X4X4X4X4X4X  X.).#XoXoXoXOXOXOXoXoXOX`.5.6.w.@.6.k.4.  }.l.  4X4X4X4X4X4X",
"4X4X4X4X4X4X4X4X4X4X4X4X4X4Xs '.&XoXoXoXoXOXOXoX#X`.4.6.#.k.+X#X+Xq.#.  4X4X4X4X4X4X4X",
"4X4X4X4X4X4X4X4X4X4X4X4X4X4X4XX.`.$X@X+XoXOXOXOXOX@X#X$X$X@X+X*X+Xx.  4X4X4X4X4X4X4X4X",
"4X4X4X4X4X4X4X4X4X4X4X4X4X4X4X4XV q.#.z.&X@XoXOXOXXXoXXX+X@X$X X6.  4X4X4X4X4X4X4X4X4X",
"4X4X4X4X4X4X4X4X4X4X4X4X4X4X4X4X4Xj u.p.0.n.#X#X#X#X#X#X Xk.c.w.  4X4X4X4X4X4X4X4X4X4X",
"4X4X4X4X4X4X4X4X4X4X4X4X4X4X4X4X: V.L.N.t.@.5.0.e.0.0.q.4.      4X4X4X4X4X4X4X4X4X4X4X",
"4X4X4X4X4X4X4X4X4X4X4X4X4X4X4Xb Z.P.K.P.P.Z.t.y.i.y.u.A   4X4X4X4X4X4X4X4X4X4X4X4X4X4X",
"4X4X4X4X4X4X4X4X4X4X4X4X4X4Xb Z.P.K.K.K.K.L.L.K.L.K.P.C.  4X4X4X4X4X4X4X4X4X4X4X4X4X4X",
"4X4X4X4X4X4X4X4X4X4X4X4X4X  s.P.K.K.K.K.K.K.K.K.K.K.P.B.  4X4X4X4X4X4X4X4X4X4X4X4X4X4X",
"4X4X4X4X4X4X4X4X4X4X4X4X4XC V.P.K.K.K.K.K.K.K.K.K.K.L.F.C 4X4X4X4X4X4X4X4X4X4X4X4X4X4X",
"4X4X4X4X4X4X4X4X4X4X4X4X  h.P.K.K.K.K.K.K.L.K.K.K.L.K.P.G.  4X4X4X4X4X4X4X4X4X4X4X4X4X",
"4X4X4X4X4X4X4X4X4X4X4X4X  f.L.K.J.K.K.K.K.K.K.K.K.K.K.L.S.  4X4X4X4X4X4X4X4X4X4X4X4X4X",
"4X4X4X4X4X4X4X4X4X4X4X4Xb V.L.K.K.K.K.K.K.K.K.K.K.K.K.L.A.  4X4X4X4X4X4X4X4X4X4X4X4X4X",
"4X4X4X4X4X4X4X4X4X4X4X  s.P.K.K.J.J.K.K.K.K.K.K.J.K.K.L.A.  4X4X4X4X4X4X4X4X4X4X4X4X4X",
"4X4X4X4X4X4X4X4X4X4X4Xb V.L.K.K.K.K.L.K.K.K.K.K.L.J.K.L.A.  4X4X4X4X4X4X4X4X4X4X4X4X4X",
"4X4X4X4X4X4X4X4X4X4X  N.P.K.K.P.L.K.K.K.K.L.K.K.K.L.H.Z.Z.  4X4X4X4X4X4X4X4X4X4X4X4X4X",
"4X4X4X4X4X4X4X4X4X4X  h.L.K.P.Z.C.L.K.K.K.K.K.L.K.L.h.m V.. 4X4X4X4X4X4X4X4X4X4X4X4X4X",
"4X4X4X4X4X4X4X4X4X4X> Z.P.K.A.Z f.L.K.K.K.K.K.K.K.L.N.m C.+ 4X4X4X4X4X4X4X4X4X4X4X4X4X",
"4X4X4X4X4X4X4X4X4X  h.P.K.L.C p.P.K.K.K.K.K.K.K.K.P.N.m B.+ 4X4X4X4X4X4X4X4X4X4X4X4X4X",
"4X4X4X4X4X4X4X4X4X  N.L.J.L.Z a.L.K.K.K.K.K.K.K.K.P.N.C C.+ 4X4X4X4X4X4X4X4X4X4X4X4X4X",
"4X4X4X4X4X4X4X4X4X  N.P.P.P.Z a.P.K.K.K.K.K.K.L.K.L.N.> p.X 4X4X4X4X4X4X4X4X4X4X4X4X4X",
"4X4X4X4X4X4X4X4X4X  p.Z.V.D.b a.P.K.K.K.K.K.K.K.K.L.N.@ s . 4X4X4X4X4X4X4X4X4X4X4X4X4X",
"4X4X4X4X4X4X4X4X4X  5 6     + h.P.K.K.K.K.K.K.K.K.L.N.f M.X 4X4X4X4X4X4X4X4X4X4X4X4X4X",
"4X4X4X4X4X4X4X4X4X  v.%X/ d.K.J.K.K.K.K.K.K.L.K.K.L.N.M ).X 4X4X4X4X4X4X4X4X4X4X4X4X4X",
"4X4X4X4X4X4X4X4X4X  b.%X^ d.P.K.K.K.K.K.K.K.K.K.K.L.N.M ).+ 4X4X4X4X4X4X4X4X4X4X4X4X4X",
"4X4X4X4X4X4X4X4X4X  b.&X~ s.P.K.L.K.K.K.K.K.K.K.K.L.N.| ).X 4X4X4X4X4X4X4X4X4X4X4X4X4X",
"4X4X4X4X4X4X4X4X4X  M.&X~ f.P.K.K.K.K.L.K.K.K.K.K.L.N.f ).O 4X4X4X4X4X4X4X4X4X4X4X4X4X",
"4X4X4X4X4X4X4X4X4X  v.%X^ d.P.K.K.K.K.K.K.K.K.K.K.L.N.f ).X 4X4X4X4X4X4X4X4X4X4X4X4X4X",
"4X4X4X4X4X4X4X4X4X  v.%X^ s.P.K.K.K.L.K.K.L.K.K.K.L.N.f (.X 4X4X4X4X4X4X4X4X4X4X4X4X4X",
"4X4X4X4X4X4X4X4X4X  b.%X~ s.P.K.K.K.K.K.K.K.K.K.K.L.N.| ).X 4X4X4X4X4X4X4X4X4X4X4X4X4X",
"4X4X4X4X4X4X4X4X4X  E.%X~ s.P.K.L.K.K.K.K.K.L.K.K.L.N.M ).X 4X4X4X4X4X4X4X4X4X4X4X4X4X",
"4X4X4X4X4X4X4X4X4X  b.$X^ s.P.K.K.K.K.K.K.K.K.K.K.L.N.M ).O 4X4X4X4X4X4X4X4X4X4X4X4X4X",
"4X4X4X4X4X4X4X4X4X  b.%X^ s.L.K.K.K.K.K.K.K.K.K.K.L.N.f ).X 4X4X4X4X4X4X4X4X4X4X4X4X4X",
"4X4X4X4X4X4X4X4X4X  b.$X/ s.P.K.K.K.K.K.K.L.K.K.K.P.N.f ).O 4X4X4X4X4X4X4X4X4X4X4X4X4X",
"4X4X4X4X4X4X4X4X4X  M.$X~ f.P.K.K.K.K.K.K.K.K.K.K.L.N.f M.+ 4X4X4X4X4X4X4X4X4X4X4X4X4X",
"4X4X4X4X4X4X4X4X4X  b.$X~ f.P.K.K.K.K.K.K.K.K.K.K.L.N.^ M.+ 4X4X4X4X4X4X4X4X4X4X4X4X4X",
"4X4X4X4X4X4X4X4X4X  b.%X/ s.L.K.K.K.K.K.K.K.K.K.K.L.N.| ).X 4X4X4X4X4X4X4X4X4X4X4X4X4X",
"4X4X4X4X4X4X4X4X4X  n.$X~ f.P.J.K.K.K.K.J.K.K.K.K.K.N.| ).O 4X4X4X4X4X4X4X4X4X4X4X4X4X",
"4X4X4X4X4X4X4X4X4X  b.%X~ f.P.K.P.L.L.L.L.L.L.L.L.L.B./ ).O 4X4X4X4X4X4X4X4X4X4X4X4X4X",
"4X4X4X4X4X4X4X4X4X  E.$X/ a.H.G.G.G.G.G.G.G.G.G.G.H.g.| ).  4X4X4X4X4X4X4X4X4X4X4X4X4X",
"4X4X4X4X4X4X4X4X4X  E.%Xo.% h h h h h h n h h h h b - X.].= 4X4X4X4X4X4X4X4X4X4X4X4X4X",
"4X4X4X4X4X4X4X4X4X  n.$Xo.5 L J J H J K J H H J J W S g {.b.  4X4X4X4X4X4X4X4X4X4X4X4X",
"4X4X4X4X4X4X4X4X  c.oX@Xo.F { ` ' ` ' ' Y 8 ' [ [ [ [ S 5.].  4X4X4X4X4X4X4X4X4X4X4X4X",
"4X4X4X4X4X4X4X4X  ).#X+XO.4 ' ) ) ) ) Y   4X7 ] ) _ ] S B v.  4X4X4X4X4X4X4X4X4X4X4X4X",
"4X4X4X4X4X4X4X4X  E.$X+X@.4 [ ) ) ) ] P   4X3 ` ) _ ) ! Q d   4X4X4X4X4X4X4X4X4X4X4X4X",
"4X4X4X4X4X4X4X4X  /.$XoXX.S [ ) ) ) ' P   4X  7 ) ) ) _ T   4X4X4X4X4X4X4X4X4X4X4X4X4X",
"4X4X4X4X4X4X4X4X  b.oX6.  Y ) ) ) ) ] P   4X4X3 ) ) ) ) E 4X4X4X4X4X4X4X4X4X4X4X4X4X4X",
"4X4X4X4X4X4X4X4XX s M 4X4XX U _ ) _ ` P   4X4X4X9 ` ) ` T   4X4X4X4X4X4X4X4X4X4X4X4X4X",
"4X4X4X4X4X4X4X4X4X4X4X4X4X  G _ ) ) ] U   4X4X4X2 ` ` ) ` U   4X4X4X4X4X4X4X4X4X4X4X4X",
"4X4X4X4X4X4X4X4X4X4X4X4X4X  G ] ) ) _ G   4X4X  3 ` ) ) ` R   4X4X4X4X4X4X4X4X4X4X4X4X",
"4X4X4X4X4X4X4X4X4X4X4X4X4X  8 ' _ ) [ L   4X4X4X4X7 ) ) ` T   4X4X4X4X4X4X4X4X4X4X4X4X",
"4X4X4X4X4X4X4X4X4X4X4X4X4X  8 ` ) ) _ P   4X4X4X4X$ ) _ ) ) P   4X4X4X4X4X4X4X4X4X4X4X",
"4X4X4X4X4X4X4X4X4X4X4X4X4X  P ` ) _ _ U   4X4X4X4X@ 7 ) ) ` E   4X4X4X4X4X4X4X4X4X4X4X",
"4X4X4X4X4X4X4X4X4X4X4X4X4X4X@ U ) _ _ G   4X4X4X4X4X, ) ) ] R   4X4X4X4X4X4X4X4X4X4X4X",
"4X4X4X4X4X4X4X4X4X4X4X4X4X4X  8 ] ) _ I   4X4X4X4X4X2 ` ) ] E   4X4X4X4X4X4X4X4X4X4X4X",
"4X4X4X4X4X4X4X4X4X4X4X4X4X4X  P ` ) ] G   4X4X4X4X4X1 ) ) _ E   4X4X4X4X4X4X4X4X4X4X4X",
"4X4X4X4X4X4X4X4X4X4X4X4X4X4X  P ` _ ] I   4X4X4X4X4X4X7 ) ] E   4X4X4X4X4X4X4X4X4X4X4X",
"4X4X4X4X4X4X4X4X4X4X4X4X4X4X4X$ U ) _ I   4X4X4X4X4X4X# E ] E   4X4X4X4X4X4X4X4X4X4X4X",
"4X4X4X4X4X4X4X4X4X4X4X4X4X4X4X  7 ] _ P   4X4X4X4X4X4X, ! _ E   4X4X4X4X4X4X4X4X4X4X4X",
"4X4X4X4X4X4X4X4X4X4X4X4X4X4X4X  G ] _ I   4X4X4X4X4X4X, ) _ E   4X4X4X4X4X4X4X4X4X4X4X",
"4X4X4X4X4X4X4X4X4X4X4X4X4X4X4X  7 _ ] G   4X4X4X4X4X4X, ) ] R   4X4X4X4X4X4X4X4X4X4X4X",
"4X4X4X4X4X4X4X4X4X4X4X4X4X4X4X3 E _ _ I   4X4X4X4X4X4X, E ] R   4X4X4X4X4X4X4X4X4X4X4X",
"4X4X4X4X4X4X4X4X4X4X4X4X4X4X  I ] ) ` G   4X4X4X4X4X4X, ) ) R   4X4X4X4X4X4X4X4X4X4X4X",
"4X4X4X4X4X4X4X4X4X4X4X4X4X4X  8 ) ) ] P   4X4X4X4X4X4X# ! _ R   4X4X4X4X4X4X4X4X4X4X4X",
"4X4X4X4X4X4X4X4X4X4X4X4X4X4X  P ` ` U 1 4X4X4X4X4X4X# I ) ` R   4X4X4X4X4X4X4X4X4X4X4X",
"4X4X4X4X4X4X4X4X4X4X4X4X4X4X  8 ] ] G 4X4X4X4X4X4X4X2 ` ) ] E   4X4X4X4X4X4X4X4X4X4X4X",
"4X4X4X4X4X4X4X4X4X4X4X4X4X4X< R ` ` 8 4X4X4X4X4X4X4X1 ) _ ! 9   4X4X4X4X4X4X4X4X4X4X4X",
"4X4X4X4X4X4X4X4X4X4X4X4X4X  I ] ) ` 8   4X4X4X4X4X4X1 ) _ T   4X4X4X4X4X4X4X4X4X4X4X4X",
"4X4X4X4X4X4X4X4X4X4X4X4X4X  G ] ) T , 4X4X4X4X4X4X4X1 ) ] T   4X4X4X4X4X4X4X4X4X4X4X4X",
"4X4X4X4X4X4X4X4X4X4X4X4X4X2 R ) ` G   4X4X4X4X4X4X4X2 ) ] R   4X4X4X4X4X4X4X4X4X4X4X4X",
"4X4X4X4X4X4X4X4X4X4X4X4X  I ] ) T 2 4X4X4X4X4X4X4X4X1 ' [ T   4X4X4X4X4X4X4X4X4X4X4X4X",
"4X4X4X4X4X4X4X4X4X4X4X4X, T ` ` 7 4X4X4X4X4X4X4X4X4X@ D D E   4X4X4X4X4X4X4X4X4X4X4X4X",
"4X4X4X4X4X4X4X4X4X4X4X  R { ' T 1 4X4X4X4X4X4X4X4X4X..=XW.4 X 4X4X4X4X4X4X4X4X4X4X4X4X",
"4X4X4X4X4X4X4X4X4X4X4XX     4 2   4X4X4X4X4X4X4X4X  $ !.W.  4X4X4X4X4X4X4X4X4X4X4X4X4X",
"4X4X4X4X4X4X4X4X4X4X4X  -.Q. .  4X4X4X4X4X4X4X4X4Xw T.-. .  4X4X4X4X4X4X4X4X4X4X4X4X4X",
"4X4X4X4X4X4X4X4X4X4X4X  $.~.} 4X4X4X4X4X4X4X4X4X4X$.<X1X>X-.*.    4X4X4X4X4X4X4X4X4X4X",
"4X4X4X4X4X4X4X4X4X4X  $.T.*.Y. .4X4X4X4X4X4X4X4X4X*.1X1X1X1X<XQ.Y.4X4X4X4X4X4X4X4X4X4X",
"4X4X4X4X4X4X4X4X4X4X  -X1X1X1X-Xe 4X4X4X4X4X4X4X4X..!.~.~.~.~.-X^.  4X4X4X4X4X4X4X4X4X",
"4X4X4X4X4X4X4X4X4X4X  -X1X1X1X1XQ.4X4X4X4X4X4X4X4X                4X4X4X4X4X4X4X4X4X4X",
"4X4X4X4X4X4X4X4X4X4X  R.-X~.~.~.*.4X4X4X4X4X4X4X4X4X4X4X4X4X4X4X4X4X4X4X4X4X4X4X4X4X4X",
"4X4X4X4X4X4X4X4X4X4X$             4X4X4X4X4X4X4X4X4X4X4X4X4X4X4X4X4X4X4X4X4X4X4X4X4X4X",
"4X4X4X4X4X4X4X4X4X4X4X4X4X4X4X4X4X4X4X4X4X4X4X4X4X4X4X4X4X4X4X4X4X4X4X4X4X4X4X4X4X4X4X",
"4X4X4X4X4X4X4X4X4X4X4X4X4X4X4X4X4X4X4X4X4X4X4X4X4X4X4X4X4X4X4X4X4X4X4X4X4X4X4X4X4X4X4X",
"4X4X4X4X4X4X4X4X4X4X4X4X4X4X4X4X4X4X4X4X4X4X4X4X4X4X4X4X4X4X4X4X4X4X4X4X4X4X4X4X4X4X4X"
};
