/* XPM */
static char *_60d69a739fb4c58b07c4cbb2f67de19ckeZyru1GFjRKRuM[] = {
/* columns rows colors chars-per-pixel */
"64 64 223 2 ",
"   c #020600",
".  c #000A13",
"X  c #022A1D",
"o  c #0A2519",
"O  c #090427",
"+  c #032B21",
"@  c #0A2F3C",
"#  c #2A3B3B",
"$  c #5E0000",
"%  c #460002",
"&  c #6D0000",
"*  c #6A3B27",
"=  c #2B473F",
"-  c #0C3744",
";  c #253B46",
":  c #2E494A",
">  c #135762",
",  c #555658",
"<  c #534E4E",
"1  c #6F544B",
"2  c #5A6355",
"3  c #696F59",
"4  c #595D63",
"5  c #50656A",
"6  c #737369",
"7  c #6A7979",
"8  c #767979",
"9  c #686B6C",
"0  c #8C0005",
"q  c #995B33",
"w  c #B85936",
"e  c #AF5F48",
"r  c #AE604C",
"t  c #9E7A6A",
"y  c #C3674E",
"u  c #78877C",
"i  c #848655",
"p  c #959A5A",
"a  c #ABB05E",
"s  c #8A8B7B",
"d  c #93936B",
"f  c #AA857C",
"g  c #9BA26F",
"h  c #A6A867",
"j  c #B7B97B",
"k  c #B5B36F",
"l  c #C3BC74",
"z  c #BCC073",
"x  c #C2C269",
"c  c #C8C274",
"v  c #DAD77E",
"b  c #D1CB7D",
"n  c #557780",
"m  c #627682",
"M  c #7A7F83",
"N  c #897D81",
"B  c #678B88",
"V  c #7D8489",
"C  c #73938F",
"Z  c #7BADAA",
"A  c #538989",
"S  c #88868A",
"D  c #869189",
"F  c #969683",
"G  c #8A9794",
"H  c #9B9A91",
"J  c #8B8595",
"K  c #A09E8F",
"L  c #A39D9F",
"P  c #98A298",
"I  c #A9A88F",
"U  c #B6B489",
"Y  c #A8A699",
"T  c #BBB99C",
"R  c #B7AC8E",
"E  c #9C9CA8",
"W  c #A29AA8",
"Q  c #99A9AA",
"!  c #85BCB7",
"~  c #8AADB0",
"^  c #A9A7A8",
"/  c #B5ACA9",
"(  c #B4B4AA",
")  c #BAB8A9",
"_  c #A9A8B4",
"`  c #B3BAB5",
"'  c #BDBBBD",
"]  c #B8B7B8",
"[  c #C2BE9D",
"{  c #C3BF80",
"}  c #C3BCBA",
"|  c #D0B5BA",
" . c #BFC49B",
".. c #BAC3AB",
"X. c #BBC9B5",
"o. c #A9CDA7",
"O. c #97D1B8",
"+. c #C5C585",
"@. c #CBCB84",
"#. c #C5C68A",
"$. c #D4D586",
"%. c #D5D38A",
"&. c #DBD98C",
"*. c #D3D29D",
"=. c #DAD796",
"-. c #C8CB94",
";. c #E3DD99",
":. c #E4CE82",
">. c #DCE393",
",. c #E7E58D",
"<. c #ECEB93",
"1. c #E5E498",
"2. c #F4ED9C",
"3. c #FAF49C",
"4. c #FDFB9B",
"5. c #F7F797",
"6. c #EDF195",
"7. c #CAC9A4",
"8. c #D9D8A7",
"9. c #CBCAB9",
"0. c #D3CDB5",
"q. c #DBD5BC",
"w. c #D7D2B4",
"e. c #D3CEA8",
"r. c #E4DEA9",
"t. c #E6DABA",
"y. c #DDE5B6",
"u. c #DCEAAD",
"i. c #E6E4A7",
"p. c #F6ECA4",
"a. c #FCF5A3",
"s. c #FEFBA4",
"d. c #FEF5AA",
"f. c #FFFBAC",
"g. c #F6FBAB",
"h. c #E7E5B6",
"j. c #FDF4B1",
"k. c #FFFDB3",
"l. c #EDF0BB",
"z. c #AFAEC0",
"x. c #BDBDC2",
"c. c #C6BDC6",
"v. c #B6C8CC",
"b. c #BAD3D2",
"n. c #ACCDCC",
"m. c #97E2D6",
"M. c #A1E1DD",
"N. c #97EBE9",
"B. c #99F4E8",
"V. c #99FFFA",
"C. c #95EDF1",
"Z. c #A4EAE5",
"A. c #A5F9E9",
"S. c #A3FDF4",
"D. c #ACFCF3",
"F. c #A6FEFE",
"G. c #ABFCFD",
"H. c #A2F1F6",
"J. c #B4FEFB",
"K. c #B3FAF8",
"L. c #B2ECED",
"P. c #C5C4CA",
"I. c #C9C8C8",
"U. c #D1CCCA",
"Y. c #D1CDC2",
"T. c #C8D4CA",
"R. c #D5D1CA",
"E. c #DAD6CA",
"W. c #CDC5D4",
"Q. c #C9CCD4",
"!. c #D4CBD3",
"~. c #DAD5D3",
"^. c #D6DADC",
"/. c #DDDBDC",
"(. c #D7D6D6",
"). c #E6DDC1",
"_. c #E5DADD",
"`. c #DAE1D8",
"'. c #D8E0CB",
"]. c #E6E6DE",
"[. c #F3F8DD",
"{. c #D8D8E1",
"}. c #D9D2F3",
"|. c #E3DCE3",
" X c #E3DDEB",
".X c #E4DFF3",
"XX c #DAE6E7",
"oX c #DEE7F0",
"OX c #E4E4E4",
"+X c #EAE5E6",
"@X c #EBECE5",
"#X c #E4E4EA",
"$X c #EBE5EB",
"%X c #E5ECEB",
"&X c #EDEDED",
"*X c #E7E8E3",
"=X c #F1E4EC",
"-X c #F1ECEB",
";X c #F3EFE4",
":X c #ECF1ED",
">X c #EBF6E9",
",X c #F2F2EC",
"<X c #FCFDED",
"1X c #F6F6E5",
"2X c #EDEDF2",
"3X c #EBE8F6",
"4X c #F2EDF3",
"5X c #F3EDFA",
"6X c #FBECF7",
"7X c #ECF3F3",
"8X c #EDFAF3",
"9X c #E5F5F2",
"0X c #F3F3F3",
"qX c #FAF6F4",
"wX c #F6F9F3",
"eX c #FBFCF5",
"rX c #F5F4FB",
"tX c #FBF6FD",
"yX c #F4FCFC",
"uX c white",
"iX c #FEFEFE",
"pX c #FDFDFD",
"aX c #FDFDFD",
/* pixels */
"uXuXuXuXuX&X7X&X&X0XuXuXuXpXpX&X&X2X&X0XuXuXpXuX0X0X@X9X@XpXyXqXpXpXeX&X-X-X%XtXuXpXuXuX0X&X2X,X&XtXuXuXuXuX&X&X&X4X&XuXuXuXuXuX",
"uXuXuXuXuX&X-X&X@X0XuXuXuXuXtX@X&X&X&X0XuXuXuXuXqX$X&XrX].L J G E +XeX2X2X@X&XtXuXuXuXuX0X@X&X&X&XpXpXpXpXpX0X&X&X&X&XpXuXuXuXuX",
"uXpXuXuXuX&X0X2X2X0XuXpXuXuXpX7X7X4X&X0XuXuXpXpX8X4X$X0X|.4 O 5 . ] pX%X4X,X:XpXpXpXuXuX0X7X&X4X&XyXuXuXuXuX0X2X0X2X:XpXuXuXpXpX",
"uXuXuXuXpX2X@X@X$X0XuXuXuXuXqX&X@X$X&X0XuXuXuXuXwX0X&XrX#XV - m ; c.qX7X2X*X&XtXuXuXuXpX0X2X&X@X&XpXuXuXuXuX0X@X&X@X4XpXuXuXuXuX",
"pXpXuXpXwX0X&X0X2XwXyXpXpXtXwX0X7X-X0XwXqXpXpXpXtX4X*X9X,XV - m @ x.pX%X0X-X&XtXpXpXpXqXwX0X-X7X,XtXpXpXpXwX0X:X0X&X0XpXpXtXpXpX",
"&X&X&X0X0XtXpXuXuXpX,X&X@X7X0XuXuXpXuXpX0X2X-X&X0XtXpXpX0XE O m - _ pXpXrXuXpXrX&X-X2X0XrXuXuXuXpX0X0X2X0X4XtXpXuXpXpX0X:X-X:X:X",
"&X0X&X&X&XuXuXuXuXpX&X0X2X&X4XuXuXuXpXpX7X&X7X&XyXuXpXpXuX_ O 5 @ ] pXuXpXpXpX7X&X0X&X&XpXuXuXuXuX0X&X@X&X&XpXuXuXpXuX&X&X7X4X:X",
"&X&X&X&X&XuXuXuXuXtX&X0X-X&X:XuXuXpXuXqX&X&X2X&X0XuXpXpXqXQ > A : D / OXuXeXuXwX&X2X&X&XwXuXpXuXuX:X&X&X0X&XwXuXtXuXuX-X&X&X-X&X",
"&X&X&X@X&XuXuXuXuXpX:X&X@X&X0XuXuXuXuXqX:X&X&X@X0XuX`.7 < , 4 4 3 ,   P pXpXuX,X&X&X&X&XtXuXuXpXuX4X&X@X&X&XpXuXuXuXtX&X&X&X&X&X",
"4X0X0X0X0XpXqXpXpX0X0X0X0X0X0XpXpXpXqXrX0X0X0X0X4XuX,XJ u 8.6.>.g.8.g /.tXuXeX0X0X0X0X,XwXpXpXpXpXwX0X&X0X0X0XpXpXwXpX0X0X0X0X7X",
"uXpXpXpXpX7X0X&X&X0XpXtXuXtXtX7X2X2X0X0XpXpXpXpXuX*X,X|.i.g.3.f.a.g.7.}.rX*X,XqXpXpXpXpX0X0X&X0X2XpXpXpXuXpX0X2X&X2X,XpXpXpXpXpX",
"uXuXuXuXuX&X4X&X&X,XuXuXuXuXpX@X&X&X@X0XuXuXuXuX0X>X@XR.,.4.a.p.3.s.U c.<X%X&XyXuXuXuXuX2X&X@X&X*XpXuXuXuXuX0X&X&X&X&XuXuXuXuXuX",
"pXuXpXuXuX@X4X7X&X-XuXpXuXuXpX@X2X&X&X0XuXuXpXuXqX0X3XY.<.4.a.4.d.s.+.] [.0X3XtXpXpXuXuX4X&X&X&X@XpXtXuXuXpX:X&X&X2X@XuXuXpXpXpX",
"uXuXuXuXuX&X&X&X&X7XpXuXuXuXpX&X@X&X&X0XpXuXuXuXeX0X@X9.3.k.j.j.j.s.+.' 0X4X@XqXuXuXuXpX0X&X&X&X2XpXuXuXuXpX0X@X&X&X&XpXuXuXuXuX",
"uXtXpXwXwXrX7X0X0XwXqXpXqXpX0X0X&X0X0XwXwXpXuXtXwXrXOXe.,.s.a.3.4.2.j ( 0XrX0XqXpXpXpXwXwX0X0X&X0XwXyXpXtXpXwX:X0X&X0XqXpXtXpXpX",
"&X@X&X2X-XuXpXuXuXtX7X2X@X2X0XuXuXuXuXrX&X&X2X@XwXrX(.I.r.r.s.a.;.q./.P.XXtXpXwX%X&X&X&XtXuXuXuXuX0X&X+X&X0XtXuXuXuXuX7X&X&X&X@X",
"&X&X&X&X7XuXuXuXuXpX&X&X&X&X0XuXuXuXpXpX&X2X&X0X3X(.+XuXrX(.i.,.^.uXuXuXI.^.uX0X@X4X-X&XqXpXuXuXuX,X2X&X&X0XpXpXuXpXuX&X&X&X&X&X",
"&X&X&X&X-XuXuXuXuXyX&X&X&X&X-XuXuXuXpXpX@X&X&X-X^.OXpXE.yXeX7.0.eXpXI.0XqX] wXuX&X&X&X&XyXuXuXuXuX2X&X&X&X4XpXuXuXpXuX&X&X&X-X&X",
"&X2X&X&X7XuXuXuXuXpX&X&X&X&X0XuXuXuXuXpX&X&X&X0XT.0XpX/.rXuX9.e.uXuX@XrX/.Y ,XeX$X&X&X2XpXuXuXuXuX0X&X@X&X&XyXuXuXuXuX0X&X&X7X&X",
"wX0X0X0X0XpXtXwXtXwX0X0X0X0X0XpXwXrXwXrX0X0X0XwX_.I.tXtXuX].*.;./.qXpXrXJ ` uX0X0X7X0X0XwXwXrXpXpX0X0XwX0X0XwXtXwXrXpX0X0XwX0X0X",
"pXpXuXpXpX-X0X&X&X0XtXuXuXuXwX&X&X&X7X0XtXuXuXuXwXW._ 9.r.*.1.;.*.8.7.6 E 2X5XtXuXuXpXpX0X-X&X&X&XwXpXuXuXpX0X&X2X&X,XtXpXpXuXuX",
"uXuXuXuXpX&X2X@X*X0XuXuXuXuXtX&X&X&X&X0XuXuXuXuXpX0XP.j a.d.;.&.1.k.$.I *X<X3X0XuXuXuXpX0X&X&X&X&XtXuXuXuXuX0X@X&X&X&XpXuXuXuXuX",
"uXuXuXuXuX&X4X&X&X0XpXpXuXuXpX&X-X&X&X0XuXuXpXpXwX,X@Xh.3.j.i.$.2.k.>.Y &X].*XeXpXpXuXuX0X&X&X7X&XpXuXuXpXpX0X&X&X,X&XpXuXuXpXuX",
"uXuXuXuXuX&X:X&X&X&XuXuXuXpXpX&X&X&X&X&XuXuXpXuX0X2X X7.5.f.=.#.2.k.&.Y 3X0X3X0XuXpXuXuX0X&X&X&X&XrXuXuXuXpX&X&X&X7X&XpXpXuXuXuX",
"wXrXpX0XqX0XwX0XwX,XpXwXrXpX0XrXrXwX0XrXtXpXwXwXwX0X3Xw.5.2.%.%.%.d.&.^ 2XpX0XwXpXwXwXtXwXwX0X0XrXwXwXpXrXwX0X0X0X0XwXrXqXyXqXyX",
"&X&X&X&X0XpXuXuXuXpX0X$X@X&X0XuXpXpXpXwX&X@X@X2X0XuXtXq.<.f.p.2.p.f.%.( pXuXtX0X&X&X&X2XrXpXpXuXuX0X&X&X@X:XpXuXuXuXpX0X&X&X&X-X",
"&X&X&X&X4XuXuXuXpXpX2X&X4X&X0XpXpXpXpXeX&X:X&X$X0XpXtXq.<.s.d.f.d.f.$.) uXtXuX0X&X&X&X&XpXuXuXuXuX&X&X&X&X2XpXuXuXuXpX4X&X@X0X&X",
"&X0X&X&X:XuXuXtXuXpX&X&X7X@X0XuXpXuXpXqX*X&X2XrXwXpXtXq.<.d.a.a.p.s.@.] uXuXuXwX&X2X&X&XqXuXuXuXuX&X&X4X&X0XtXuXpXuXuX&X2X&X0X&X",
"@X2X&X&X2XuXuXuXuXpX&X@X&X$X0XuXuXuXtXpX7X-X%X@X2XpXpXE.<.f.2.s.a.f.@.] uXuXtX0X@X&X&X2XtXuXuXuXuX4X&X&X&X2XpXuXuXuXuX2X&X&X2X&X",
"0XwX0XwXwXqXwXrX0X0XtXwXwX0XpXwXOXqXuXrXrXwXwXwX0XeXwXR.<.f.2.f.a.f.+.] wXpXwXwX0X0X0XwXwXrXwXwXwXwX0XwXwX0X0XwXwXyXqXwXwX0XwX0X",
"uXuXuXuXtX0X&X@X&X0XpXpXpXuX0X(.H 9.&X-XuXuXpXpXtX@X&XR.1.f.2.a.a.f.j ] rX@X&XrXuXpXuXuX0X@X&X&X&XyXuXuXuXpX4X@X$X&X2XuXuXuXpXuX",
"uXpXuXpXuX&X&X2X2X7XuXuXuXpX(.^ 7.T ( P.tXuXpXpXrX:XtX~.%.d.s.a.d.f.h c.rX*X&XpXuXtXuXuX2X&X0X4X@XpXuXtXuXpX0X&X0X&X@XuXpXuXtXuX",
"uXpXuXuXpX7X&X4X&X0XuXeXuXtX) k k.$.i ^ uX1XeXtXeX=X^.` o.,.4.k.a.;.P n.-X-X-XrXeXuXuXpX@X^ !.9.^ 0XuXuXpXpX0X&X&X&X:XuXuXuXpXuX",
"uXuXuXuXpX2X&X@X*XrXuXpXuXuX( i =.&.s 5X<XuXtXtX$Xv.Z.V.M.) =.1.:.o.J.M.X.6X0XqXpXpXwXuX@XI [ R 6 @XqXuXuXuX0X2X@X&X0XtXuXuXuXuX",
"0XwXrXwX0XqXwX0X<XrXtXwX0XtXU.Y / %.T #X&X$X].l.@.O.V.N.F.G.m.n.M.H.Z.F.C.z.oXyXtXtX<XuX X8.4.6.s Y ,XyX2XtXwXpXrXwXtXwXyX0X0XwX",
"&X&X&X@X4XuXuXuXeXtX2X:X@X&X0XqXwX .=.t.w.*.@.a g G B G L.F.V.F.V.D.C ! m.7.h.`.^.$X XE.h.=.+.$.3 F &X0X@X&XuXpXuXuXuX&X&X$X&X&X",
"&X&X2X&X0XpXuXpXeXuX2X&X@X-XrXuXuX XU h h g s L P._.E.I.Z.D.D.A.J.C._ ] P k $.v r.y.8.i.j i ^ Y 2 E.2X2X0X2XyXpXuXuXtX,X-X&X7X&X",
"&X2X&X@X&XpXuXuXuXuX3X@X,X&X4XtXrXuX0X(.P.W._.@XeXyXyXXXN.G.A.G.K.V.~ =XpX^.7.R a h h p H P.pX*XT.2X2X2X2X&XqXuXuXuXpX0X&X&X-X&X",
"&X&X&X&X0XpXuXuXuXpX&X-X0X&X0XuXuXeXpXpX&XwX1X0X6XuXwX^.C.G.D.H.K.A.! =XeXrXtX{.P.' x.c.$XpXpXpXuX0X4X&X0X*XuXpXuXuXpX0X@X&X&X4X",
"pXrXwXpXpXwX0X0XrX0X0XpXtXrXwX0X,XrX0X8XyXyXrXwXrXyX;XT.B.F.D.D.G.A.~ ~.<X7XtXpXpXpXpXuXpX0X2X0XwX0XpXqXwXwXqXrX0XwXrXrXwXpXqXyX",
"uXuXpXuXpX&X&X&X&X&XuXuXuXpXpX@X&X&X&X0XuXuXuXuX8X0X=Xb.B.D.S.K.F.D.~ !.qX=X%XrXuXpXpXuX&X&X@X&X@XyXpXuXuXuX0X&X&X&X&XtXuXuXuXuX",
"uXpXuXuXuX&X4X&X&X4XuXpXuXpXuX&X-X&X&X0XuXuXpXpXpX+XqXb.B.D.S.K.F.S.! (.8X=X:XpXpXpXuXuX0X0X2X0X&XpXpXuXtXuX0X-X&X2X@XpXuXuXuXuX",
"uXuXuXuXtX&X&X&X%X0XuXuXuXuXpX&X&X&X&X0XuXuXuXuXqX-X+Xv.A.J.F.V.S.S.~ P.8X4X%XtXpXuXuXuX0X&X@X&X&XtXuXuXuXuX0X*X&X&X&XpXuXuXuXuX",
"pXuXpXpXpX0X,X&X&X0XpXuXuXpXwX&X4X&X&X0XpXpXpXuXeX&X,Xv.C Z Z Z ~ u 7 I.0X&X&XpXuXuXuXpX0X2X&X&X2XwXpXuXuXpX0X&X&X0X0XpXpXuXuXpX",
"0X0X0XwX0XpXwXyXpX0X0X0X0X0XwXpXwXtXrXwX0X0X0X0X0XyXuXOX4 # <   < # 9 =XuXtXwX2X0X0X0X0XwXpXyXpXpX0X0X0X0X0XqXyXtXyXtXwX0X0X0X0X",
"2X&X&X&X0XuXuXuXuXqX&X&X&X&X4XuXuXuXuXwX&X&X&X&XrXpXpX*Xt : 6 H 7 = u XXpXuXuXwX&X&X&X&XtXuXuXuXuX,X&X&X&X&XpXuXuXuXuXwX&X@X&X2X",
"&X&X&X&X&XuXpXuXuXpX&X&X&X&X&XuXuXuXuXpX&X&X&X&XtXyXpX&XB + D T.Q X 9 %XuXpXuX0X&X&X,X&XqXpXuXuXuX&X&X&X&X&XpXuXuXpXuX&X&X&X&X&X",
"&X&X4X&X&XuXpXuXuXpX2X2X@X&X0XuXuXuXpXpX&X2X,X&XqXqXuX3XM + S _.^ X 9 (.tXuXpX0X&X&X2X&XpXpXuXuXuX0X2X&X&X&XpXuXuXpXuX&X&X,X2X&X",
"&X@X&X&X2XuXpXuXuXpX&X&X@X&X0XuXuXuXuXtX@X2X@X@X7XpXpX$XC X S  X( : 5 U.pXeXqXqX&X&X&X&XpXpXuXuXuX0X&X$X@X2XpXuXuXpXuX7X-X&X&X&X",
"uXpXpXpXwXwX4X0X,X0XwXpXtXyXwX0X:X4X0XwXwXtXpXpXyX$XeXOX7 X G &Xc.o # c.pX7XrXrXpXpXpXwX0X0X0X0X0XwXpXpXpXpX0X0X0X&X0XwXtXpXpXpX",
"uXuXpXuXpX&X&X&X&X0XpXuXuXuXtX&X&X&X&X0XuXuXuXuXtX@X].$Xs   S pX|.3 2 ] ,X&X2XqXpXuXuXuX0X@X@X2X&XyXpXuXuXuX0X&X@X@X2XtXuXuXuXuX",
"pXuXtXuXuX&X&X0X&X2XuXuXtXuXuX&X0X&X&X:XuXuXuXpX0X&XyX X8.k ^ pX&X8.j } 0X>X&X0XpXtXtXuX0X2X&X&X@XpXuXpXuXuX&X&X2X0X@XuXuXpXpXpX",
"uXuXuXuXpX@X&X&X&X2XuXuXuXuXpX@X&X&X&X0XuXuXuXuXpX@X2X3X8.b P.yX7Xh.c Y.0X*X:XpXuXuXuXuX0X&X@X&X@XpXuXuXuXuX&X&X&X:X@XpXuXuXuXuX",
"pXuXpXuXtX7X0X&X,X0XpXuXuXpXtX7X,X&X2X0XpXpXpXuXpX%X-X#X8.c P.pXrXt.k P.5X&X0XrXpXuXuXpX0X&X2X0X0XtXpXuXpXpX0X0X&X4X2XpXpXpXpXpX",
"&X0X0X0X0XpXwXtXpXwX0X0X2X0X0XpXpXtXpXyX0X0X0X0XtXyXpX2Xr.l ] uXoXt.x I.uXuXpXrX4X0X0X0XwXrXqXpXpXwX0X2X0X0XwXpXpXwXpX0X0X0X0X:X",
"&X&X&X@X&XuXuXuXuXtX&X&X@X&X,XuXuXuXpXtX@X@X&X&X;XyXuXrXh.l ' rXXXt.x I.tXeXeXrX&X&X@X%XpXuXuXuXtX:X&X&X&X&XtXuXuXuXuX&X&X&X&X&X",
"&X&X&X&X&XuXuXuXuXpX&X&X&X&X-XuXuXpXuXrX&X&X&X&XrXtXuXtXr.j } yX2X'.c I.tXeX1XuX&X-X&X&XpXpXuXuXuX,X&X@X,X&XrXuXuXpXuX7X&X&X&X&X",
"&X-X&X&X&XuXpXuXuXrX&X&X&X&X7XuXuXpXuXwX&X&X&X&XyXuX1X,Xu.k X.tX3Xy.k X.wXeXyX2X&X7X&X&XrXuXpXuXuX4X2X&X4X7XqXuXuXpXuX4X&X&X&X-X",
"&X&X&X7X0XpXtXuXuXpX:X&X&X0X0XuXuXpXpXpX0X:X&X&X;XtXyXtX0.g W.wX:X(.h c.uXtXpXqX@X2X&X4XqXuXpXuXtXwX:X&X&X0XpXuXuXpXpX4X&X&X&X0X",
"pXpXpXtXwX0X2X0X&X0XpXpXpXpXqX0X4X7X0X0XqXpXuXpXuX%XeXb./ z.!.1XwX|.X.W {.eX$XeXpXpXpXwXwX0X7X4X0XyXpXpXpXpX0X0X0X&X0XwXpXpXpXpX",
"uXuXuXuXpX&X@X@X$X0XpXuXuXuXwX&X&X@X&X0XpXuXuXuXqX>X9.r w 1 | pXpX| q q f _.pXwXuXuXuXpX0X&X@X&X&XqXuXuXuXuX0X*X&X@X&XpXuXuXuXuX",
"pXpXuXuXuX2X2X0X&X0XpXpXtXuXpX7X4X&X&X0XpXuXpXpXtX/ w y e & ` yXyXP.0 y w t (.uXpXpXuXuX0X&X2X:X&XpXuXtXpXuX0X&X2X&X&XpXuXuXpXpX",
"uXuXuXuXpX@X&X&X&X0XuXuXuXuXpX@X&X&X@X7XpXuXuXuXoX1 $ < , s `.uXuX{.N * 1 % D ,XuXuXuXuX0X&X&X&X*XpXuXuXuXuX7X&X&X&X&XtXpXuXuXuX",
"pXuXpXuXuX&X0X&X&X0XpXpXuXpXpX&X&X4X&X0XuXuXpXuXpXE.I.~.{.tXeXuXpXeX>X{.^.Q./.eXuXpXuXuX0X&X2X&X&XpXpXuXpXuX4X&X&X0X@XpXuXuXuXpX"
};
