/* XPM */
static char *_203637fb7b84d21c64b26122d3fa121HenFzGsYhgyNxyIi[] = {
/* columns rows colors chars-per-pixel */
"64 64 253 2 ",
"   c None",
".  c #02027E",
"X  c #04067D",
"o  c #0C097E",
"O  c #020284",
"+  c #0B0085",
"@  c #000C84",
"#  c #01028B",
"$  c #0B008B",
"%  c #000B8C",
"&  c #140088",
"*  c #00118C",
"=  c #001684",
"-  c #020293",
";  c #0C0094",
":  c #000B93",
">  c #01039C",
",  c #000D9B",
"<  c #0C009C",
"1  c #140097",
"2  c #001292",
"3  c #00149B",
"4  c #001C9C",
"5  c #001A94",
"6  c #00229A",
"7  c #003093",
"8  c #0102A3",
"9  c #000CA3",
"0  c #0102AA",
"q  c #000BAC",
"w  c #0B00A8",
"e  c #0016A4",
"r  c #0012AD",
"t  c #001BAB",
"y  c #001AA1",
"u  c #0102B4",
"i  c #0009B5",
"p  c #0101BC",
"a  c #000ABC",
"s  c #0A02B8",
"d  c #1700B9",
"f  c #0012B3",
"g  c #001BB4",
"h  c #0013BD",
"j  c #001EBD",
"k  c #0912BD",
"l  c #1200A8",
"z  c #0026A8",
"x  c #0033AD",
"c  c #0138AC",
"v  c #0023B4",
"b  c #002CB4",
"n  c #0025BC",
"m  c #002ABE",
"M  c #0035B4",
"N  c #0032BC",
"B  c #003BBC",
"V  c #003BB5",
"C  c #1B32BA",
"Z  c #2610A1",
"A  c #0047B8",
"S  c #0058BC",
"D  c #0043AE",
"F  c #1D65B5",
"G  c #4D56BC",
"H  c #0101C4",
"J  c #0B00C3",
"K  c #000BC4",
"L  c #0102CB",
"P  c #000CCA",
"I  c #0C03C8",
"U  c #0014C3",
"Y  c #001BC2",
"T  c #0014CB",
"R  c #001BCB",
"E  c #0102D3",
"W  c #000CD3",
"Q  c #0308DB",
"!  c #001BD4",
"~  c #001BDC",
"^  c #0013D4",
"/  c #120EC9",
"(  c #0023C4",
")  c #002BC4",
"_  c #0024CB",
"`  c #002DCA",
"'  c #0A24C6",
"]  c #0034C3",
"[  c #003CC4",
"{  c #0033CD",
"}  c #003BCB",
"|  c #0025D2",
" . c #002CD3",
".. c #002BDB",
"X. c #0124DB",
"o. c #0035D3",
"O. c #003CD3",
"+. c #0033DC",
"@. c #003ADB",
"#. c #1B35CC",
"$. c #2F36C7",
"%. c #0106E1",
"&. c #0016E7",
"*. c #0609F5",
"=. c #0029E3",
"-. c #0034E3",
";. c #003AE7",
":. c #0828F8",
">. c #0638F5",
",. c #1830F2",
"<. c #2834EF",
"1. c #2400C0",
"2. c #4A3DF9",
"3. c #0042C5",
"4. c #004CC4",
"5. c #0044CB",
"6. c #004CCD",
"7. c #0A48CD",
"8. c #0053CC",
"9. c #005AC7",
"0. c #0043D4",
"q. c #004CD3",
"w. c #0044DA",
"e. c #004BDC",
"r. c #0C47DE",
"t. c #0052D4",
"y. c #005BD2",
"u. c #0053DB",
"i. c #005CDC",
"p. c #1A56D0",
"a. c #2C49D4",
"s. c #0065CD",
"d. c #0069C8",
"f. c #0077CB",
"g. c #006BD4",
"h. c #0064DB",
"j. c #006BDD",
"k. c #0064D4",
"l. c #0074D4",
"z. c #007CD4",
"x. c #0074DB",
"c. c #007DDB",
"v. c #0043E4",
"b. c #004AE9",
"n. c #0053E3",
"m. c #005EED",
"M. c #0059E4",
"N. c #014AF8",
"B. c #0457F7",
"V. c #1556FB",
"C. c #1848F3",
"Z. c #2750F1",
"A. c #0064E5",
"S. c #0063EA",
"D. c #006CEB",
"F. c #006EE2",
"G. c #0073E4",
"H. c #007BE4",
"J. c #0073EC",
"K. c #007CEB",
"L. c #0268F7",
"P. c #1768FD",
"I. c #0073F1",
"U. c #007BF4",
"Y. c #0374FE",
"T. c #017CFD",
"R. c #0A77FF",
"E. c #1A78FC",
"W. c #3668FE",
"Q. c #2F70FA",
"!. c #4954F2",
"~. c #4A6DF4",
"^. c #6477F3",
"/. c #4E67D4",
"(. c #0083DB",
"). c #008CDB",
"_. c #0087D5",
"`. c #0097DA",
"'. c #0090CF",
"]. c #00A2DC",
"[. c #0083E3",
"{. c #008AE3",
"}. c #0084EC",
"|. c #008BEB",
" X c #0093E5",
".X c #009BE4",
"XX c #0092EC",
"oX c #009BEA",
"OX c #0084F3",
"+X c #008CF4",
"@X c #0284FC",
"#X c #018BFD",
"$X c #0C86FF",
"%X c #1587FF",
"&X c #0094F5",
"*X c #009CF2",
"=X c #0293FE",
"-X c #019CFB",
";X c #0C96FF",
":X c #1597FE",
">X c #258AFF",
",X c #2698FD",
"<X c #3A96FF",
"1X c #338CF5",
"2X c #00A4E5",
"3X c #00A3EB",
"4X c #02AAEA",
"5X c #00B5EB",
"6X c #00ACF4",
"7X c #01A4FD",
"8X c #04A7F9",
"9X c #1BA7FF",
"0X c #02B6FA",
"qX c #1BB5FF",
"wX c #39A7FF",
"eX c #36BBFF",
"rX c #2AAFFF",
"tX c #4C91F9",
"yX c #6896FB",
"uX c #6D89F9",
"iX c #47A9FF",
"pX c #55A7FD",
"aX c #51B5FD",
"sX c #65A7FB",
"dX c #79ABFC",
"fX c #79BBFE",
"gX c #6AB3FE",
"hX c #6A81D5",
"jX c #03C4FB",
"kX c #07D9FF",
"lX c #14CEFA",
"zX c #28C7FE",
"xX c #34C5FF",
"cX c #2FD5FF",
"vX c #23F9F8",
"bX c #59C9FE",
"nX c #58D8FF",
"mX c #41CEFF",
"MX c #78C7FB",
"NX c #73D3FF",
"BX c #75ECFC",
"VX c #51E8FF",
"CX c #8495F6",
"ZX c #8EB1F4",
"AX c #ADB2FD",
"SX c #8991D1",
"DX c #9AC8FF",
"FX c #8ED2FE",
"GX c #A9D0F7",
"HX c #95F4FD",
"JX c #AFEAFC",
"KX c #D1EFFE",
"LX c #E6F8FA",
/* pixels */
"                                                                                                                                ",
"                                        Z.,.C.<.I H H H H H L L I U H I u :.C.,.                                                ",
"                                    !.a 8.s.s.g.L.T.E.U.$XR.L.Y.R.;XQ.@XY.h.d.q.4.>XqX                                          ",
"                                  T e.-XT.L.7XgX=X_.K.U.|.OXb.] } 4.Q.T.F.c.&XY.%Xc.H.>X                                        ",
"                                fX:XI.G.%XT.gX      $Xy.;.@.e.uXN.` ^ Q >.Q.n.F.[.}.+X(.'.zX                                    ",
"                                FXXX$X}.%X7XeX        DXb.{ o.Q.v.b.5.O.W.2.*.MX<X}.[.I.:X3XmX                                  ",
"                          uX<Xs.x.y.U. Xx.D.j.%XuXQ.>XL.V.W.V.6.o.8.;.{ 4.3.@.Q.$X[.XX$X+X&XG.q.L.dX                            ",
"                        /. .0.:.J H O.u.M.n.j.y.c.K.aXeX9XiXiXJ.D.t.| -.} o.0.O.y.dXeX).I.Y.T.J.-.] 5.<X                        ",
"                      $.-.%.&.,.=.~  .Y S.u.0.+.v.>.tXtX{ q.[.G.U.m.@.! T R O.m.S.:X,X8X=Xg.z.#XU.L.N.[ y.nX                    ",
"                    $.#.H J p >.P.| R b.x.G.A.b.e.] K p U L L 3.) n f t g j ) } m.x.j.z.kXMXtXS.u.L.c.<XiXoXeX                  ",
"                  / Z.uXdXuX:.~ I H L O.e.e.w.s.y.y.n.m g b q.s.f 8 ; + + 1 p _ ) =.I.dXfXHXnX[...d ` :XqX#X.X                  ",
"                b.V.r.GXLXGX,.p K E ! } ~ [ @.o.= > # O : e 5.8.6 % # > : @ # , w 0 *.ZXDX3XkX$X}.d.` J y.H.T.s.                ",
"            / ] Q.R.+.W.ZX~ H L h &.U a ^ ! u & & : X + ; z A [ 8.z # # O = @ $ : = s s y.7X`.XX@X-XFXpXv.J.&X$X2X              ",
"          a B.;.5.] v.p p I L )  .b x ) a 8 2 # % # # M 7 7 A l.-X|.9.z # @ # # @ 1 @ q P K.8X|.(.@XyXVX0X XD.|.8X`.            ",
"        ^.,.e.O.6.w.( %.Q u U &.e A e.T a 8 * # 5 (.5X5X3Xl.d.8X*X7X[.} p w 8 : # @ + # : D 5X8XK.I.y.x.0X6XOX}.&XeX            ",
"        7.` T 5.O.+.L p U ^.C.e H T j ^ P p # c (.`.{.i.y.] | } 5.O.} ] {  .P w > 2 8 9 @ & O.jX6XOXh.u.|.0X4XJ.I.&XqX          ",
"      s v.Z.sXN.o.W R K I >.V.) | E L H r $ z A x @ & 8 0.4.} ] O.} O.` @.u.n.w.T u g s i @ # ).0X&XD.+.x.OX).&XU.}..XxX        ",
"      B.I.;XMXP.L n ) Q K 5.0.5.) U r 2 * 3 9.0 $ 4 b n.G.G.q.@.;.5.q.e.e.3.u.w.K P w p i 1 2 9 }.T.x.;.XX0Xb.*X[.OX&X`.        ",
"    c 6.g.[.G.D.^ O.u.-._ o.U P H %.8 > 4 - @ 3 x S w._ ) `  .} ] ;.=.-.w.4.[ w.S. .-.r b # & > 3.@Xg.X.j.8X=.y.T.c.&X8X        ",
"  zX9X0XbX:XU.@.Y q.L.q.e.+.K L L h < (.z > 3.t.] g w $ # O # 2 0 n 4.8.w.+.6 ] kXOXy.=.{ g.: # r G.+.J R }.D.H.OX#XsX0X`.      ",
"  s.7.*XrX:Xy.L -.u.m.o.u._ K U I f j ).S m b 6 ; @ O g 3 # 6 g.3X XU.S.4.o.h O S jXu.L.( l.V @ # [ +.L _ {.}.&X|.@X:X=X6X      ",
"  I.P.cX'.S.^ h { 5.e.] @.I L H U  .l.i 5 6 + O O @ O > - # : c d._.c.F.M.5...: @ d.B.4.O.G.c.% # r ) W 0.x.e.{.{.$X[.[.3XjX    ",
"  OXE.cX@Xb.K ~ { X.` 6._ L P K _ L.q.% < # X X < 4 e # - O $ O & $ # n j.g.t.Y 5 < >.4.H.=X].q g m 0 H ) b.S.[.&Xc.U.c.7X`.    ",
"  ).g.l.}.S.E ~.GX~.q  .K U K L q f.f 9 # : 3 ` @.[ t # # % # * = @ - + X } 5.0.> - V S.h.g.8XD { y.* f h v.T.} |.OX$X(.*XMX    ",
"4X[.A.$X[.U.%...JXZXE L P U K q A J.n.q ; , ~ q.5.e + $ $ - @ $ # % + @ * # u o.v # r x.&Xx k.d.g T % > W ~ D.e.K.|.OX{.0X      ",
"  j.h.H.K.}.n.s /.KXtXE U i L } O.V D X 8 p { i.9 $ @ * $ X * $ # : $ - @ @ c x.9.0 # t.*X` > A q u q , a n T.l.L.XXx.F.=X2X    ",
"  [ e.J.I.F.g.E n P.7X_ K U ) e.f > # 2 i L b.M O + % @ O - * # - # O @ + + V +Xn.V , h x.+.8 1 f I w > W U m.G.t.|.,X1X=X7X    ",
"  D.S.x.eXKXiXR L H q.R L h S x N h J L K H n - - % $ @ @ 1 # @ e N [ m h w e D.@.` 5 > M.{ z $ g L u q E L q.A.t.#XFXKXlX0X    ",
"zX{.S.K.iXGXxXq.{ %.( K E 1 e 9 v T K P ^ K A Y # # # - - O - o Y +.5.w.{ i e } 5.X.e : q. .) : @ H h 0 9 u 4.|.;XR.Y.%X}.[.tX  ",
"`..Xn.H.y. .3X,Xh.~ M K i # . , e W f P L ( q.e # 9 D # O * l % 9 8 3 _ R h q 8 o.4.&.# D n  .# # u P p @ q dXzX;X}._.).}.U.l.  ",
"_.|.y.{.}.;XzXQ.H.3.y.a # : % , 8 u E H j S.M O : } 4.= * n H 8 : + # 9 > : a w { g.-.6 8.4 b < > E a i < , yXjXH.,XbX7Xz.x.K.  ",
").M.n.&X6X5XoX`.{.c.S > # @ - # 3 ^ K H @.H.> - = H.2 # g Q [ M + # # 8 8 # p 0 3.D.@.G.M.n 5.: > s j P i U j.).h.>X;XOXwXzX*X;X",
"3Xy.H.jX0XjXbX&X$X0X, % @ - * & b y.E L v.h.< @ M s.# 2 .. .F.*X3.v e 8 q g - ; 3.4X*XU.g.R w.8 + 8 a H U O.+X&Xe.h.(.K.wXlX5X`.",
"[.e.G.2X6X3XnX9XfX#.$ # O : O h ( 8.P H } 3.# # S '.5.o.+.O.G.l.g.{ e r O.D.c ; 9.xX0Xc.L.) 8.# - q T w a m.#XA.u.>X,XL.(. X X].",
"A w.m.eXjX2X2X-X@Xw # X 8 @ # m ( [ U L _ x # - t.XX&Xy.} m o.- 9 > , ;.L.J.z 8 ,XFX8XMX:.@.q.4.w.Y L 0 ] L.u.x.O.<X<XF.[.&X2X4X",
",XK.:.iX0X5X0X3XV , # @ @ + ; e U Y h P T v # # n @.8.;.v.+.W e < q e n ] U 2 9.NXMXFXMXW :.-.h.K.) P g j.J.6.).8Xz..XvX5X&X2XoX",
"  4.k.z.8X5XkXFX3.l r < $ O > 8 K L h L R g # # x 5.[ O.a M | K w # 8 8 $ u | w.+XNXGX:.| N ) u.Y.` T 5.}.e.n.+X5X4XlXvX0XU.6X.X",
"  J.g.|.oXxXKXJXfX^.* X - @ - , K L P L U y @ # n M.^ 7.N : m X.B g 6 : 8 i m W.fXdX..K -.! ! U.b.j f 6.-.Y I.c.#XNXvXkX(.J.6X0X",
"  8XB.T. XzXFXHXLXGXa C - : # 8 K E K P R v # # , oX{ Q 5.&.r M 6.-.@.O.V.pXfXBX1X8 p R R i e.K.e , 8 p L w.6X(.0XcXvXBXaXR.+X`.",
"  .XJ.G.0X0X4X7XtXI k #.: $ : # a a i H _ N # # : S XXy.` y.A.=.w.@.} 0.Q.ZXtX{.> d n E a 3 I.3.$ : q L Y G.:XgXJ.}.0XbXaX+Xg.v.",
"    g.F.OX9XzX{.q.i : @ . O - - i 5 < H ) +.( 2 @ > (.jXA.i.).A.H.A.F.q.5.N 0.M.T a 8 i > [ S.8 : $ i ( N.&XO.,.1.(.8XH.c.D.i.y.",
"    E.n.{.0X0XXX,Xa.- i /., O q ` * # 9 ^ [ ;.v $ $ 4 z.4X*X6.^ _ e._.x.i.{ U > : ; # + z t.z . X i 5.u. XJ.%.J f.nXDX=X[.*X4X  ",
"    9Xe.2X3X7X{.R.<.> C ^.9 # + N a - : P 6.q.{ > # : 4 G.8XxXeX:X7X6Xy.b e > 2 O # @ z e.N O , e ( w.OX6Xq.y.].FXHXxXoX:X4X5X  ",
"    `.+X[.0X-XT.K.L i $ + # * ; x | > + v K.k.w.n > O X - { aXLXKXKXGXV.3.@.m > $ 2 [ h.M O # O i q.m.U.i.l.xXHXFX,X_.K.Y.8X8X  ",
"    bXXXn.4X2Xz.[.b.f - > $ # @ v 7.( 0 N J.@XS.y.^ p e @ # i N.CXDXGXW.@. .n f M ;.w.x q ; > u O.0.i.U.T.bXJXFX:XG.=X[.U.'.    ",
"      8.B.pXHXbX9X{.R k 9 # # % , e.A } @.5.I.oXOXU.w.T R n 9 - w g 6.-.;.5.5.t.q.q.5.) q e 8 4 t.O.q.q.9XNXNX4Xc.Y.H.).9XqX    ",
"      tXw.~.FXJXmX.X@.w 5 p # - # 3.x B ;.0.e.H.c.#Xc.u.R ) N =.....5.o.e.y.v.+.@.w.{ Y 3 % , v o.} o.v.x.y.g.$XwX+XT.#X_.      ",
"        q.[ g.`.8X0XOX3.> i 8 # # z X.a.N.6.-.O.S.I.U.s.i.4.A t , < ; < q r v v g e - ; # $ . Y v.O.T 6.&.X.H.;X,X&XU.`.        ",
"        pX6.>.O.w.).&X-X~.;.Z.3 % : o.q.f } -.q.+.4.B.) 3 B h.i.g.P.Z.o.q.h.G.k.M.) # # . # t _ t.j O w ) S.&XH.g.H.z.eX        ",
"          uXH ;.W.,XY.:XpX>XsX1 # o > M.y , @.6.0.@.} i.b o . 7 D y.8.D 6.4.y.S z : @ % v N n R c O p.u.{ }.-XD.@X$XrX          ",
"              H <XFXG.G.z.I.z.L.~.N.7 0 q 8 U { m v  .z m { g 0 + O O X O ; ; e x m ` { ` g $ 8 < r AXyXb.I.x.;XU.).            ",
"                ) *.q.@X}.XXk.iXJXDXrXe O @ a.4 { n 9 - # 3 z X.+.] B 0.0.v.N { j M y > - > # - X 9 hXyX0.i.G.Y.XX              ",
"                ~.) %.O.}.OX$X[.;XE.B.Q a.G l > : R j i u > # : t n | ~.Z.4.z & & # l 8 U f - + # e 4.6.@.-.v.o.1X              ",
"                  2.=...b.OX0XH.l.y.i.E !.ZXH # # #  .^.~.T H < X > w H q ] O.g p K 0 e y G g 8.L.@XU.|.D.B.s !.                ",
"                    #.;.f >.A.r.w.` @.P L 6.CX~.ZX/.> G G 1 8 ` ZX,.E K J d u a ! #.w = > @ > I.@X;XL.D.s.s                     ",
"                      H.t.Q E O.o.^ p H %.w.CXuX^.;.Y - O @ g ' SXI , 4 9 > % > C yX- o u 6.g.|.F.&XS.w.,.                      ",
"                        aXx.[ E ^ P *.!.H K ' } ) [ W.V.) < & # O - > 1 & & & X O @ p.' y.S.2X*XT.K.S.d                         ",
"                            pXx.z.B.*.,.P U &.-.>.B.pX!.w.V.V n O.w.V.5. .7.f.a.K o.1XB.kXA.L.@XY.-.s                           ",
"                                aX X(.q.s 1.^ [ 3.C.P.@.v.GXC.Q N.  DXDX  fXZXpXY.j.y.q.y.j.}.&Xp a.                            ",
"                                    >XH.D.E.:.I  .T Q ! g <.=.+.l.AXiX                  %X2XjX`.                                ",
"                                        @X X&Xd.B.v.E H &.9.d.R.S.Y.E.P.                aX*X X8X                                ",
"                                            lXeX2X X{.`.oX`.:X8X;X,X<Xb.v.%XZX        rX2X9X                                    ",
"                                                    cXqXqXxXoX2X XoX].`.;X).2X6XoX X8X`.,X                                      ",
"                                                                        ].6X4X&XlX&XGX                                          "
};
