/* XPM */
static char *ebaa56fa46094200c26c934c97db4288ib3lqFLjv9zhUcRY[] = {
/* columns rows colors chars-per-pixel */
"64 64 256 2 ",
"   c None",
".  c #0B7E01",
"X  c #057C07",
"o  c #157C05",
"O  c #087C15",
"+  c #1D7D19",
"@  c #028403",
"#  c #0B8403",
"$  c #028B02",
"%  c #0C8B02",
"&  c #02850B",
"*  c #0B830A",
"=  c #028B0B",
"-  c #0A8B0C",
";  c #138402",
":  c #128B02",
">  c #128B0B",
",  c #188609",
"<  c #029402",
"1  c #0C9302",
"2  c #039C04",
"3  c #0C930A",
"4  c #089A08",
"5  c #129303",
"6  c #139C02",
"7  c #13930C",
"8  c #1A9807",
"9  c #0A8413",
"0  c #078814",
"q  c #178A15",
"w  c #079715",
"e  c #199814",
"r  c #259907",
"t  c #389B09",
"y  c #279715",
"u  c #288E0C",
"i  c #02A203",
"p  c #0BAD02",
"a  c #07A707",
"s  c #17A707",
"d  c #02BC02",
"f  c #0CBB03",
"g  c #0CBC0B",
"h  c #06B606",
"j  c #12B302",
"k  c #12BC03",
"l  c #1CBC04",
"z  c #13BD0C",
"x  c #19B709",
"c  c #0CAA15",
"v  c #19A715",
"b  c #09B914",
"n  c #16BA15",
"m  c #24A50D",
"M  c #28A807",
"N  c #37A908",
"B  c #2CB50C",
"V  c #27B908",
"C  c #34BC03",
"Z  c #39B908",
"A  c #25A714",
"S  c #37A815",
"D  c #28B915",
"F  c #3CBC13",
"G  c #36B816",
"H  c #0F8623",
"J  c #2A9327",
"K  c #0EB627",
"L  c #33B228",
"P  c #45AB08",
"I  c #45B808",
"U  c #56B80B",
"Y  c #49AC18",
"T  c #46B916",
"R  c #56B818",
"E  c #55AB10",
"W  c #69BB09",
"Q  c #63B110",
"!  c #4CB12D",
"~  c #59A533",
"^  c #03C302",
"/  c #0BC302",
"(  c #07C40A",
")  c #14C203",
"_  c #1CC302",
"`  c #14C30B",
"'  c #1AC709",
"]  c #0AC214",
"[  c #19C415",
"{  c #13D119",
"}  c #2BC303",
"|  c #27C608",
" . c #32C503",
".. c #3CC503",
"X. c #3CCB01",
"o. c #33C50B",
"O. c #3CC40C",
"+. c #3BCC0C",
"@. c #32CB05",
"#. c #38D307",
"$. c #29C415",
"%. c #38C516",
"&. c #36D10D",
"*. c #36C628",
"=. c #31C82B",
"-. c #42C403",
";. c #4BC403",
":. c #44CB04",
">. c #4BCB03",
",. c #44C40B",
"<. c #42CC0C",
"1. c #4CCB0C",
"2. c #4BC40B",
"3. c #5BCD02",
"4. c #53CB0B",
"5. c #55C707",
"6. c #48D305",
"7. c #54D302",
"8. c #5BD30D",
"9. c #59D304",
"0. c #42C513",
"q. c #4BC513",
"w. c #43CA14",
"e. c #4AC919",
"r. c #53CC13",
"t. c #58C718",
"y. c #49D314",
"u. c #56D415",
"i. c #67CA08",
"p. c #76CB08",
"a. c #6BD401",
"s. c #6DD40C",
"d. c #68D809",
"f. c #7DD401",
"g. c #7CDA01",
"h. c #73D50C",
"j. c #7BD40C",
"k. c #76D808",
"l. c #62CB14",
"z. c #69C917",
"x. c #76CB18",
"c. c #69D417",
"v. c #73D314",
"b. c #7DD413",
"n. c #7BDB13",
"m. c #74D41C",
"M. c #7BD41C",
"N. c #7CDC1B",
"B. c #72DA15",
"V. c #78E305",
"C. c #48C722",
"Z. c #58C826",
"A. c #4BCC39",
"S. c #58C838",
"D. c #56D32C",
"F. c #67CA27",
"G. c #7ACB24",
"H. c #68D424",
"J. c #79D626",
"K. c #64CA38",
"L. c #78D436",
"P. c #6FD037",
"I. c #7BE022",
"U. c #55B447",
"Y. c #6EB04E",
"T. c #6EB469",
"R. c #659B50",
"E. c #59C849",
"W. c #52CB4A",
"Q. c #77D545",
"!. c #79D756",
"~. c #6CCD4D",
"^. c #7EE25A",
"/. c #72D368",
"(. c #3EA146",
"). c #8CDB02",
"_. c #85D707",
"`. c #98D905",
"'. c #85CB16",
"]. c #84D414",
"[. c #84DA14",
"{. c #83DB1C",
"}. c #89D71A",
"|. c #97DA17",
" X c #93CB0B",
".X c #A5DE07",
"XX c #A6DB18",
"oX c #8AE306",
"OX c #98E405",
"+X c #88E315",
"@X c #99E317",
"#X c #A8E606",
"$X c #B8EA09",
"%X c #AAE617",
"&X c #B0EC11",
"*X c #87CB24",
"=X c #88D724",
"-X c #96D726",
";X c #8AD737",
":X c #95D737",
">X c #99C831",
",X c #A5DC2C",
"<X c #A7D83B",
"1X c #AFD52E",
"2X c #89E227",
"3X c #96E326",
"4X c #9AE436",
"5X c #86E238",
"6X c #AFE82E",
"7X c #C4DE36",
"8X c #C8E72B",
"9X c #F6EF2F",
"0X c #D6E90A",
"qX c #86DA46",
"wX c #96DA46",
"eX c #95DA5A",
"rX c #8BD550",
"tX c #A9D747",
"yX c #B5DD52",
"uX c #AAD853",
"iX c #99E44D",
"pX c #A7E449",
"aX c #B8E947",
"sX c #A8E557",
"dX c #99D86A",
"fX c #8BD674",
"gX c #A9D86F",
"hX c #86E463",
"jX c #A9E569",
"kX c #AAE578",
"lX c #B9EA6B",
"zX c #C6E94B",
"xX c #CDEC6F",
"cX c #D3E356",
"vX c #96D289",
"bX c #B0DA90",
"nX c #97E18A",
"mX c #A8E785",
"MX c #B6E696",
"NX c #B6E78F",
"BX c #B6E7AB",
"VX c #AFDBA6",
"CX c #C6EB8B",
"ZX c #CEEF91",
"AX c #CCDDAE",
"SX c #CAE8AA",
"DX c #D4EBAD",
"FX c #C9E8B8",
"GX c #D6E8B8",
"HX c #D2F4B0",
"JX c #E9F3AF",
"KX c #E7F899",
"LX c #D5F0C4",
"PX c #EDF5D2",
"IX c #F5F6E8",
"UX c #9FBE9C",
/* pixels */
"                                                    BX            BXBX                                                          ",
"                                        E.W.E.E.( ^ ^ ^ ^ d ^ ^ ( ' ( ( d A.S.E.                                                ",
"                                    E./ 3.i.a.a.H.J.qXJ.;XL.J.L.L.;XqX=XL.s.i.1.;.qX<X                                          ",
"                                  ' 6.*XJ.B.>XdX-X_.k.n.}.M.u. .X.5.!.J.a.g.*XJ.;Xg.k.qX                                        ",
"                                dX:Xn.v.2XJ.jX      ;X7.e.e.t.fXD.@.' [ S.!.u.d.b.{.'._. X<X                                    ",
"                                kX}.3X*X5X-XyX        kXu. .0.!.Z.t.:.+.!./.*.CXiX[.n.J.3X#XyX                                  ",
"                          E.L.i.s.5.J.|.B.B.s.;XfX^.L.P.Q.^.E.>.X.;.e.&.;.,.+.!.2Xn.oX=X=X}.V.1.L.dX                            ",
"                        X.@.q.A.( ^ ..9.8.r.s.9.g.n.lXaXwXsXsXv.m.5.o.%.-.O.:.,.9.NXaX).n.J.J.G.+.@.>.qX                        ",
"                      f e.D =.W.C.| %.' c.r.q.+.t.C.kXdX@.>.].B.N.l.%.| ) V O.H.z.:XwX,X>Xa.g.}.M.B.y...a.yX                    ",
"                    ( X.^ ( d A.Q.$.l t.x.s.s.Z.<. .f d ) ` z ;.C V v j l l } X.c.a.d.g.8XCXhXc.t.P.[.iXjX#X:X                  ",
"                  ^ Z.fXvXnXA.D ( b ^ <.1.u.1.i.4.l.t.S M N R E x 3 - @ & w c | | &.G.bXNXKXxXb.@.] F ;X:X}.`.                  ",
"                y.~.T BXIXGXA.d ` ` | ..| Z +.F , > $ @ $ y Y R u ; * q , * % 1 c i =.BXHXOX0X2Xn.i.} ( 7.].J.i.                ",
"            ^  .!.L.&.!.BX$.d / ) $.D k ' | h & 0 : . & * u I I R r < = @ ; # 9 1 o h d 9.-X`.|.N.-XZXkXZ.v.}.=X#X              ",
"          d D.<.-.@.e.^ d [ (  .o.N N V k i , * * $ % S t r E p.@X[.W u * @ $ @ # = ; e D n.|.}._.=XmXxXXX).m.].3X`.            ",
"        S.E.t.,.;.r.V $.D d x *.8 I r.' v 4 , $ , _.#XXX|.p.i.|.|.OXoXI p a 4 - $ # & O > P XX|.[.m.5.a.&X%X{.b.oX6X            ",
"        :.} ) :.<.+.] d | fXE.6 v ' l | / c $ t _. X'.l.3...G ,.>.q.F G 0.o.z h 7 5 i 6 . 0 q.$X#X[.l.8.oX%X.XB.G.@X<X          ",
"      d e.W.mXF.+.D n / ( S.P.| | [ ^ g s 9 t P N # X w R I Z  .0.:.X.Z e.4.8.q.z h s b e # $ '.%X-Xd.w.k.+X).+XM.M.OXtX        ",
"      F.G.:XCXQ./ V } ' g ,.:.-.} k j 5 , q U w 9 8 C r.v.h.4.<.e.,.1.r.q.-.7.q.k ) a x f w , 6 n.J.h.C._.%Xt.@X_.}.}..X        ",
"    N ;.a._.k.c.' +.4.e.| %.l ' f [ 6 q 8 > : 8 N U :.G G F G T  .y.w.%.y.>.-.1.F.@.%.j V $ 0 3 I =Xi.$.s.@X%.7.J.j.=X@X        ",
"  ,X4X%XlX4XM.w.V q.m.4.4.+.n / ( k w j.N 3 Y R S S w = $ @ $ : 4 B ;.>.1.0.r S 7X[.8.%.O.W , @ v x.<.b | [.v.B.=X{.kX&X`.      ",
"  a.>.#XtX;X9.( w.r.c.@.r.| ` ) b j m '.E S t 8 - . % x 6 # u i.|.`.N.l.;.0.m & Q XXt.H.} a.P # @ I %.[ $.'.oX|.[.=X;X|.XX      ",
"  m.Q.zX Xd.[ V @.<.r. .q.g ] f l %.p.v , r & X @ # @ - - & > N W '.b.s.8.-.%.1 $ W c.>.,.n.j.* * e V $.>.a.u._.oX;XV.'.OX1X    ",
"  [.qXyX=XD./ %.O.o. .;.} ( z / V H.R # 0 < . X w 8 8 X > @ $ @ 0 & & S z.i.5.B , 2 C.5.x.+X`.y A B a d  .7.F._.}.j.m.j.%XXX    ",
"  ).a.p.n.z.( ^.GX/.p %.) ) f n s p.m e * , 6 G w.Z M = # * * , ; : $ & X T 2.q.3 - Z c.c.i.#XN Y 5.; s x y.J.X.].{.;Xj.`.gX    ",
"`.j.d.+X].M.$.*.GXBXL [ _ ) ^ s E n.u.e O 6 $.1.I s & O = < # 9 * % & * : $ v O.S $ s d.|.t z.W m V % 2 ' $.m.4.oX*X+X[.XXAX    ",
"DXx.d.G.M.'.t.h T.PXdXn k f ( ,.T N t o 4 f T l.6 = # : & . ; = $ $ 0 * # # N p.U a ; R @XG 2 Y p h e 2 ) V J.a.c.}.a.V.=X#X    ",
"  I q.m.V.h.i.[ | P.3X} ) k B t.M 4 $ 6 d ` t.S @ @ : % @ * % @ - $ & . X & S }.r.P > A k.&.7 0 j ] e 2 ` ) F.h.9.'.wXdX3X-X    ",
"  c.c.h.jXLXjX| z ^ 7.B g k U N Z A b z / g V $ = % O o > 0 $ @ u C I C A w s z.<.o.8 3 l. .M < s g a j b / >.v.>.=XZXLX6X%XFX  ",
"tX`.c.n.jXLXyX7.Z { V ) n w y 7 s D z z ' n I S * $ # - - @ - , D +.1.6.@.v s I ,.&.8 % t.G B 1 : h k a p c U [.:XL.N.;X]._.dX  ",
" X|.r.b.7.@.`.wXd.L C k a $ X 5 8 ' j z ) B R 8 * 7 P 1 $ ; w : 2 a 5 V D x p 3 O.3.*.@ P B F @ % d ) v # y NX6X3XM._._.}.n.p.  ",
"'.].3.].].+XaXrXh.E 4.v $ : > 7 3 d ( ^ l z.S $ % Y E ; , M j a : = & 6 2 1 f c S a.%.r R 8 V q 3 ` f p 0 q mX1Xj.wXxX@X_.j.G.  ",
"_.9.u.|.#X$XOXOXoXj.U 5 $ * $ @ 8 $.l ^ w.x.7 $ , b.1 * M { Z S X $ % i 6 @ c 4 Y v.+.x.l.S >.> 3 c _ z p x d.).i.5X;X[.sXpXOX:X",
"#X4.+X&X&X&XlX}.;XXX7 $ ; < ; 0 S i.] / e.z.q # t i.@ 5 %.@.s.|.I M e 7 s A - 0 I |.|.N.z.V 1.q O 4 / n ) 6.*X+Xr.a._.x.pXzX.X`.",
"b.7.v.#X%X#XxX6XNXU.= * $ > @ A N >.` g O.I = $ U `.Y O.%.+.x.x.i.T 6 j ,.v.N 9 5.aXXX_.c.} R $ < p x a f c.=Xd.u.rXwXJ.g.).`. X",
"I T u.6X$X#XOX@XG.q $ ; - * * B B ..) g } N @ $ R }.@X5.,.V @.- p 4 7 q.B.c.M 7 rXKX,XCXA.&.r.5.q._ n a Z H.t.x.X.eXsXv._.|..X|.",
"wXn.W.sX$X#X$XOXI q X # o & < s V z ) z _ M % = C 0.7.w.r.w.) s q a s S Z V 5 Q xXCXZXNXz w.w.l.b.C ` s z.k.>.oX|.g.OX8X#X|..X|.",
"  ;.i.g.3X$X8XCXY J J - = @ > 4 / g ) z ) m % * M :.Z :.A M o.g w $ 2 i w e G 6.=XZXFXA.D C C r.J.o._ U G.1.r.[.%X&X8X9X,Xn.XXOX",
"  h.p.[.`.zXPXPXMXfX$ X @ # 9 5 g ( ' z _ m $ * S 8.$.:.Z 1 S %...m r 1 2 h C /.NXMXO./ e.| $.N.Z.l x T w._ B.x.+XxX9X0X_.h.-X%X",
"  ,XH.N.`.6XZXJXIXLXJ ~ * 3 o i g ` x z _ M $ # e |...n ,.$.s C ;.w.w.0.Q.gXNXZXrX3 d V _ f r.x.8 6 3 c ^ <.#X_.,XzX9XxXkX=X}.`.",
"  |.d.s.&X%X#X3XdXK J ~ > & q $ j g p f | S = % $ E OX9.o.a.z.%.q.w.,.+.Q.NXdX`.i c V n x 6 B.T 9 $ s g | v.4XkXm.oX#XxXlX*Xa.! ",
"    k.z.}.4XzX).#.h < o X @ 9 < j 5 - g } %.B 5 * 7 '.$Xs.8._.d.v.c.c.6.-.C >.8.D x 2 s > I c.q > & s _ u.+XF S.K g.:XB.g.c.8.3.",
"    H.8.).&X%X}.4XR.1 J T.q X e o.; @ a | O.e.M 9 & 8 p.#X`.;.| } 7._.p.l.F A 3 2 0 = & y 4.m . @ v :.r.`.B.$.^ p.xXZX@X[.|..XDX",
"    =X4.`.#X@X_.L.E.4 ~ nXe ; & C v < 7 ' 5.4.o.- $ 3 u v.@XaXjX4X3XXX5.S 8 > 1 $ X # M t.N @ > u V +.=X,X1.7..XxXKXyX|.qX#X$X  ",
"    `.+X].%X3XI.m.^ h = @ $ , = N G 2 O M M.i.w.V 2 . . < O.lXIXIXPXGXK.:.<.B : 9 5 Y l.N & * @ c 7.l.M.d.a.yXJXHXiX_.{.J.@X>X  ",
"    tX|.8.#X#X_.b.y.j q - = $ # m :.B e Z v.I.v.3.$.c 8 o $ j S.MXSXGX!.0.O.B A N C.R N e - q v q.2.8.M.;XxXJXDX:Xd.}.].[.).    ",
"      3.u.kXDXxX4X'.G J y = @ % 7 4.I X.O.2.m.}.{.G.e.l V S 8 < a j >.&.+.:.-.4.7.2.-.B s a 4 8 5.,.4.T :XZXxX#Xg.J.]._.6X<X    ",
"      P.q.^.ZXJXzX|.+.a u v * < * I M -.y.,.r.b.n.=Xv.9.D G Z G L %.q.%.t.5.w.<.0.1.O.B 8 % 1 M +.X.T t.k.7.a.;XsX[.J.2X_.      ",
"        >.-.a..X%X&X+X..2 p i * & r ! U.D.U w.:.d.m.G.W t.E Y M 6 2 0 2 s v B M m s - 9 @ - X B r.<.n R $.&.b.;XpX*X[.).        ",
"        qX>.S.+.:.).|.:X^.C.E.q : , T R A O.w.1.&.U F.G 6 Y t.i.W Q.~.Y R l.x.W F.S $ @ X @ m | q.S @ a } s.*Xh.a.b._.tX        ",
"          ~.d e.!.wXN.rXgXeXmXw 1 & 3 t.8 6 0.q.q.+.@.8.S X X u E R R P U R R E r 5 $ - m C B D N X Y.R @.].-XB.N.;XwX          ",
"              d dXCXM.V.f.M._.F./.K.t q y q A O.N M F r N O.s v & X @ . @ w 2 s N N Z O.G m = 3 4 7 BXmXZ.m.f.;XJ.).            ",
"                } =.>.=X{.'.a.jXGXSXtXe X # Y.8 F S e - # 5 M G T V C q.T y. .Z B N r 3 < 2 $ - . q vXmX0.8.x.L.oX              ",
"                U.| [ O.'.M.2Xb.:XL.H.$.U.T.J q 3 D x j h < & q A B G /.~.I M 0 0 $ w a A J 3 X $ s I >.q.C.y.@.Y.              ",
"                  W.T o.u.G.,Xb.p.7.t.{ /.VXh = * $ L nXfXD j < X 2 a v v S T s h ^ i s y R.m R H.J.{.'.c.H.g E.                ",
"                    +.C.z u.l.1.q. .0.z ^ ;.nX/.MX/.+ R.R.q w L bXW.[ ) ^ b a j L U.q , 7 * 1 G.=X:XF.B.i.h                     ",
"                      V.9.K ' <.@.$.d b $.e.VXmXfXU.M < & * y ! UXJ 3 8 7 2 5 9 (.gX< & e 1.i.}.B.}.c.q.W.                      ",
"                        pXa.X.D $./ =./.( ) ' X.| :.^.K.S 4 & $ 3 2 2 w 0 9 O X & # R.! U z.OX|.N.*XH.b                         ",
"                            iXk.g.H.=.U.` z $.y.y.K.gX/.y.K.C M <.e.~.:.| -.j.U.A T eXD.1Xz.m.=XL.#.h                           ",
"                                pXOXg.R d K [ X.:.K.Q.+.e.FX~.' Z.  MXSXHXNXNXjXm.s.a.>.a.s.[.}.^ U.                            ",
"                                    qXj.B.Q.W.( &./ [ $.V W.*.w.h.VXsXLX          SXSXMX:X|.%X`.                                ",
"                                        =X`.|.a.K.e.` g $.9.a.M.c.L.Q.Q.LX              jXOXOX>X                                ",
"                                            tXaXOXOX).`.OX`.4X3X-XwXeX1.w.qXNXSXHXSXSXpXOX<X                                    ",
"                                                LXGXyX<X6XaXOX.XOXOX.X`.3X).`.#X#XOX%X`.wX                                      ",
"                                                            GXFXGXGXGXLX.X.X>X}.1X}.SXFX                                        "
};
