/* XPM */
static char *c93c9fdccf9247fef8e3b5b42ad9a18drXtPDgVMamJCOl12[] = {
/* columns rows colors chars-per-pixel */
"64 64 241 2 ",
"   c None",
".  c black",
"X  c #00000D",
"o  c #000019",
"O  c #040025",
"+  c #1D1B3B",
"@  c #180F38",
"#  c #332E47",
"$  c #0A3150",
"%  c #4A0042",
"&  c #620841",
"*  c #453953",
"=  c #034963",
"-  c #005775",
";  c #00647B",
":  c #29667E",
">  c #31687B",
",  c #2F4859",
"<  c #474759",
"1  c #51535E",
"2  c #5C5A6A",
"3  c #615E6C",
"4  c #6E4E61",
"5  c #5C6C75",
"6  c #696775",
"7  c #776C77",
"8  c #696C76",
"9  c #7D725D",
"0  c #E2001E",
"q  c #DB003F",
"w  c #87005A",
"e  c #930956",
"r  c #A8005D",
"t  c #B4005E",
"y  c #880B60",
"u  c #A60265",
"i  c #B4106B",
"p  c #952864",
"a  c #9A3F6E",
"s  c #AC326F",
"d  c #8B305F",
"f  c #DA0649",
"g  c #DD2E5B",
"h  c #C90069",
"j  c #CD007A",
"k  c #C90476",
"l  c #CC177A",
"z  c #CF267D",
"x  c #E00A54",
"c  c #B04D74",
"v  c #8F6B67",
"b  c #9A5F61",
"n  c #C84C73",
"m  c #F25778",
"M  c #82837E",
"N  c #968D7D",
"B  c #B48873",
"V  c #B5AA78",
"C  c #D48576",
"Z  c #005980",
"A  c #006B8B",
"S  c #006985",
"D  c #05738D",
"F  c #007593",
"G  c #007B95",
"H  c #007D9A",
"J  c #0E7C93",
"K  c #197A94",
"L  c #15708A",
"P  c #286E87",
"I  c #38758B",
"U  c #297C95",
"Y  c #387B92",
"T  c #2E7189",
"R  c #4C7789",
"E  c #477D94",
"W  c #50758B",
"Q  c #7A7A85",
"!  c #BF3585",
"~  c #CF3B88",
"^  c #F230A3",
"/  c #977183",
"(  c #B2708F",
")  c #B45988",
"_  c #D15D9F",
"`  c #CC758E",
"'  c #EB7387",
"]  c #F752AC",
"[  c #D471A3",
"{  c #FE69B6",
"}  c #00829D",
"|  c #06879C",
" . c #15849C",
".. c #29879E",
"X. c #358299",
"o. c #39869A",
"O. c #0086A1",
"+. c #018BA2",
"@. c #0888A2",
"#. c #1C8DA4",
"$. c #178BA3",
"%. c #0094A8",
"&. c #1894A8",
"*. c #2C8BA4",
"=. c #268CA5",
"-. c #338CA4",
";. c #3B8EA4",
":. c #348BA5",
">. c #2C93AA",
",. c #2697AA",
"<. c #3691A6",
"1. c #3B92A6",
"2. c #3394AA",
"3. c #3B95A9",
"4. c #3C9AAD",
"5. c #349BAE",
"6. c #329DB1",
"7. c #0CA3B3",
"8. c #2AA4B4",
"9. c #3BA0B2",
"0. c #468599",
"q. c #59889B",
"w. c #5A909F",
"e. c #668799",
"r. c #778C99",
"t. c #418DA3",
"y. c #5E8EA0",
"u. c #4291A5",
"i. c #4294AA",
"p. c #449AAC",
"a. c #4A98AB",
"s. c #5B94A4",
"d. c #429CB0",
"f. c #6997A7",
"g. c #7797A6",
"h. c #678FA1",
"j. c #77A1AC",
"k. c #7AA3B2",
"l. c #69A3B4",
"z. c #47A1B2",
"x. c #85828A",
"c. c #8A8B95",
"v. c #938A95",
"b. c #97949A",
"n. c #929193",
"m. c #B5899B",
"M. c #A6949A",
"N. c #9CA19D",
"B. c #A4A29C",
"V. c #8B9CA9",
"C. c #879BA7",
"Z. c #979BA5",
"A. c #B090A9",
"S. c #85A1AC",
"D. c #8CA1AD",
"F. c #93A4AE",
"G. c #98A6AC",
"H. c #8BA8B4",
"J. c #9EADB5",
"K. c #96AAB5",
"L. c #9BB1BB",
"P. c #A6A4AB",
"I. c #AAA7AA",
"U. c #BAB7A4",
"Y. c #A2ACB4",
"T. c #ACADB3",
"R. c #B5ACB3",
"E. c #ADB6BC",
"W. c #A7B5BA",
"Q. c #BBB9BC",
"!. c #B6B4BA",
"~. c #B8AAAB",
"^. c #C9918E",
"/. c #C3B487",
"(. c #D48CA2",
"). c #E995A4",
"_. c #D5A9B2",
"`. c #C4BBBC",
"'. c #CCB4AA",
"]. c #F2ABB2",
"[. c #EBA098",
"{. c #BDC1AC",
"}. c #E0C099",
"|. c #C2C4B4",
" X c #CFCDB9",
".X c #DDDAA1",
"XX c #ACBBC4",
"oX c #BEBCC1",
"OX c #B6BDC2",
"+X c #C1BFC4",
"@X c #DABBCA",
"#X c #F8B5C3",
"$X c #BAC2C8",
"%X c #AEC0C9",
"&X c #C3C2C4",
"*X c #CBC4C5",
"=X c #CAC6C9",
"-X c #CBCBCC",
";X c #C9CAC6",
":X c #D5CACD",
">X c #D5D4CD",
",X c #CECCD0",
"<X c #D2CFD1",
"1X c #CBD2D6",
"2X c #D4D3D3",
"3X c #D9D5D5",
"4X c #DBD9D6",
"5X c #DDDBDA",
"6X c #D7D9DA",
"7X c #CED0CE",
"8X c #FCC5C8",
"9X c #E3DEDC",
"0X c #E4D7D6",
"qX c #E2CAD2",
"wX c #D9E1DE",
"eX c #E4E2DD",
"rX c #E8E6DA",
"tX c #F9FAD9",
"yX c #EFEFCB",
"uX c #DEDCE0",
"iX c #F0DDE1",
"pX c #D9E6E7",
"aX c #E5E4E2",
"sX c #EAE5E3",
"dX c #ECEAE4",
"fX c #EDEDEA",
"gX c #E6EAE7",
"hX c #F2ECE7",
"jX c #F2EEEA",
"kX c #FAEBE9",
"lX c #FDFDE5",
"zX c #F3F3EC",
"xX c #FAF4ED",
"cX c #FEFEEB",
"vX c #F4F4E3",
"bX c #EEFAF8",
"nX c #F4F4F2",
"mX c #FEFDF4",
"MX c #FFFFFD",
"NX c #F7F8F3",
"BX c #EEF0EF",
/* pixels */
"                                                                                                                                ",
"                                                                                                                                ",
"                                                                                                                                ",
"                                    F.g.y.e.q.h.                                                                                ",
"                              I S S A F H H } H F F L E D.    W                                                                 ",
"                                W P t.t.u.;.;.;.u.u.:.@.H Y V.P                                                                 ",
"                              h.;.:.:.:.:.1.i.3.1.3.i.a.a.#.J T A                                                               ",
"                          F.F } =.3.<.1.3.@.H G H F H } &.i.4.*...F                                                             ",
"                        e.F 2.1.1.<.i.2.G g.W.      7XK.s.5.5.5.1.>.F V.                                                        ",
"                      e.H ;.;.3.4.p.#.0.              lX-X5 U <.3.<.2.S                                                         ",
"                    W H ;.:.3.3.p.#.e.            2X>XJ.#.6.,.D 6.2.;.O.Y                                                       ",
"                  T H <.-.3.4.i.>.w.            5X  OX+.%.;.s.Z.;.8.1.=.K                                                       ",
"                : F 0.X.2.4.3.d. .c.              E.%.,.OXzXmXMX=X} 9.,.U                                                       ",
"                      Y 4.3.3.9.I - } y.        K.| <.7XNXrX4XfXMXG.%.&.q.                                                      ",
"                    E.@.p.3.p. .Y.W.| } F F  .G } a.>X:Xs t i c 2XaX .+.XX                                                      ",
"                    J 4.3.i.4.| wXhXZ.K.k.f.u.s.r.eX5Xr h z l h u :Xl.g.                                                        ",
"                J.U 2.i.4.p.,.w.rX7XjXmXzXsXeXjX9X5Xm.h ~ l z z h ( S.Y.                                                        ",
"          R f.E G 2.3.3.4.d.+.k.5X6XMXMXMXMXMXMXMXT.c j i l k l j k c.0.uX                                                      ",
"          V.- O.p.u.<.4.3.p.@.K.9X2XrXwX;X!.-X<X,XP.c r p w c c c s v.X.OX                                                      ",
"              Y G ,.4.4.4.z.G g.dXR.2XfX=XP.nXnXnXoX/ v /.9 V /.V v v.OX+XfX                                                    ",
"                E.e.U p.5.-.Y.=XmX-XuXMXMXMXMXMX5X2Xm.r a d p p i u B ;X,X+X                                                    ",
"            V.g.D.q.o.4.| E.rXZ.zXMX+X5XMXMXnX=X=XMXR.e l j j j i e B rXnXR.aX                                      tXtX        ",
"            K.A O.=.4.2.-.-X!.b.jXmXNX4X=X=X,XOX3XMX*X& y s s p w t }.|.3X&XaX                              >XcXcXcXlXlXlXcX    ",
"              E =.1.<.>.u.!.eXMXNXzX3X6X6X3X<XaXqX:XzXa w w y & e ^.lXZ.N P.&XBX                        >XcXmXlXlXcXlXlXcX      ",
"              Y.F :.;.>.$.Y.aX5XNXmXNXzXsXaXzXMX8X` pX|.C n n m }.tXNX+X/.v |.NXdX                7X;XvXmXlXlXcXcXcXcXcX        ",
"                V.F >.d.&.h.sX*X+X5X4XmXMXMXMXMX8X].4X_.tXtXyXyXtXmX3XV.M.'.6XT.-X-X+X3X    zX4X2XrXmXcXlXlXcXcXcX              ",
"                  C.F H >.+.j.Q.>XQ.b.4XeXeXBXgX(.).sXm #XMXwX[ A.nX5XC.+.l.s.P 0.oX5X+Xx.7 T.fXmXMXcXxXcXcX                    ",
"                      g.X...G I 5X3 . U.n.8 < Q.yXN. X Xc ( _ ] ) 8 0X6X} j.S 8.%.G.MXQ . . < NXmXcXMX                          ",
"                              e.&Xc.X I.|.U.~ (.|.( m._.[ ] { { % . <X<XU.:XD.<.- . # + 6 c.# Q.MX                              ",
"                              H k.9X|.U.B.1 ~ ] ^ ] ] ^ ] { ] ` x.R.3XP.6XjXmXdXx.b.2 . 5XMXoXv.aX                              ",
"                            C.%.&.F.sX|.B.M U.` (.[ [ _.[ (.~.n.wX1XP.9XMXMXzXMXMXMX3Xo Q I.+ <                                 ",
"                            H 9.8.K 3XMXvX<X;XN. X|.B.yXN.N.>XwXm.f ].mXmXMX2XQ.MXnXuX2 . . . 1                                 ",
"                        W A O.+.$.+.C.xXMXMXNXzX(.f g f f kXsXc 0 m xXMXdXMX6X<XMXzXQ + # 6 . 3                                 ",
"                        Y.D.g.S.  C.+.s.3XNXMXNX` x _._.m kX` ' ].0XNXmXZ.sXNX<XNXx.. . T.  3                                   ",
"                                  X.%.#.D.4XwXgX).).bXaX' / g kXMX9X4XMXQ.=XaXI.w.= O o b.                                      ",
"                                  H.$X9XNXuX# * & 4 Q 4 X b 8X:XjXzX3XMX,X+X+X`.} K.`.&X                                        ",
"                                    9XXXf.p.: # , o o < 6 2XMXv.+XBXR.+X2XP.Z.7 = K.                                            ",
"                                ;XgX;XA %.8.7.H.kX0XeXMX9XI.aXc.b.fX=X8 MXfX!.6 ; L.                                            ",
"                              ;XcXmXMXY.&.9.8.&.2XMXMXMXnX!.MX5XZ.5XMX&XQ.,Xv.Q | XX                                            ",
"                              hXNXcXMXsXo.,.9.&.R `.gXxXMX&X&XMX<X<X3XMX6XP.3 P G                                               ",
"                              cXcXmXcXMXF.+.4.8.o.;XBXmX6X$X5X8 v.aXaX=XP.7 c.>.H                                               ",
"                              cXcXcXxXMX-XG 5.,. .;XMXMXpX&X4Xx.@ =XMXoXgXT.L 8.X.                                              ",
"                              mXcXmXcXMX0XL >.5.} W.MXmXgXgXzXmX-XdXjX-XMX,XJ %.q.                                              ",
"                              cXlXcXcXmX4X= 6.2.} K.mXmXgX%XgXMXMXMX6X3XMXY.O.+.g.                                              ",
"                              cXcXcXcXmX0X$ =.3.O.g.NXMXzX%XzX9Xm.M.-XfXmXg.+.H                                                 ",
"                              lXcXcXcXmX4XZ...4.+.h.hXmXcXgXmX*X~.gX=XmXgX0.#.F                                                 ",
"                              cXcXcXcXmX>X-XX.2.@.0.eXMXzXgXmXMXMXkX+XMX&XG >.T                                                 ",
"                              cXlXlXcXmX2X6XY 2.#.o.5XMXlXzXmXkXiX@XiXaXE *.@.h.                                                ",
"                              lXcXlXcXmX*XqXY 2.=...>XMXmXmXcXiXmXeXZ.t.O.i.F                                                   ",
"                              lXlXcXcXcX+XiXE >.=.o.3XMXxXNXmXMXsXV.G =.;.3.F                                                   ",
"                              lXcXlXcXcX-XxX0.>.>.X.5XMXmXMXvXE.0.@.3.i.;.=.Y                                                   ",
"                              lXlXcXcXzX:XzXE <.i. .E.mXrXE.w. .>.3.3.:.i.} h.                                                  ",
"                              lXcXlXcXdX2XBXU 2.1.2.o.w.0.| ,.4.i.3.<.1.i.F                                                     ",
"                            cXlXcXlXmXrXuXuXL 4.<.i.4.>.5.p.p.3.4.3.1.1.*.K                                                     ",
"                            cXtXlXlXmX9X0X=XF i.3.4.3.p.p.i.3.3.3.1.-.i.H                                                       ",
"                            cXlXcXlXmX9X:Xg.H 2.<.3.3.3.3.3.3.i.u.1.:.:.A                                                       ",
"                            cXlXlXlXmXrXb.K *.:.:.;.1.i.i.i.1.2.$.F F F P                                                       ",
"                            lXlXlXlXcXeX: :.:.Y :.:.*.=.H H H H t.k.                                                            ",
"                            lXtXcXlXcXrX- A A F F F K ;.f.k.                                                                    ",
"                            hXdXrXrXvX5Xg.H.K.L.XX1X                                                                            ",
"                              MXBXaXaXgXMX  nXnX                                                                                ",
"                                                                                                                                ",
"                                                                                                                                ",
"                                                                                                                                "
};
