/* XPM */
static char *_2f9126acea0430988222012ca828204AOKlB6ktmOV2Mqim[] = {
/* columns rows colors chars-per-pixel */
"42 114 205 2 ",
"   c None",
".  c #000001",
"X  c #000009",
"o  c #0A0703",
"O  c #1B0000",
"+  c #140A09",
"@  c #11100B",
"#  c #1B1706",
"$  c #080B14",
"%  c #0D131A",
"&  c #13161D",
"*  c #1C1D1D",
"=  c #171410",
"-  c #230100",
";  c #2A0000",
":  c #271606",
">  c #241C12",
",  c #292316",
"<  c #383817",
"1  c #3F270D",
"2  c #18002A",
"3  c #121825",
"4  c #141D2B",
"5  c #151A26",
"6  c #141F32",
"7  c #000027",
"8  c #1B212E",
"9  c #162234",
"0  c #1A2334",
"q  c #1B2539",
"w  c #1D283C",
"e  c #002A35",
"r  c #282728",
"t  c #392D25",
"y  c #252B34",
"u  c #3C3C3B",
"i  c #320C29",
"p  c #45280C",
"a  c #4C3017",
"s  c #553A1A",
"d  c #51330C",
"f  c #643D16",
"g  c #673E18",
"h  c #47372C",
"j  c #483B32",
"k  c #44441C",
"l  c #74461B",
"z  c #77481D",
"x  c #7B4B1D",
"c  c #6A4018",
"v  c #494921",
"b  c #575821",
"n  c #595923",
"m  c #575523",
"M  c #5E4A3C",
"N  c #7D4D22",
"B  c #764920",
"V  c #6D533D",
"C  c #65632A",
"Z  c #6C6A2C",
"A  c #7A7834",
"S  c #747823",
"D  c #000043",
"F  c #1F2B41",
"G  c #152A4F",
"H  c #162E53",
"J  c #192F54",
"K  c #1A3057",
"L  c #0F2749",
"P  c #212E45",
"I  c #202E48",
"U  c #24334C",
"Y  c #243248",
"T  c #253652",
"R  c #2A3A56",
"E  c #2B3D5C",
"W  c #273958",
"Q  c #003160",
"!  c #2B3F60",
"~  c #2D405E",
"^  c #364454",
"/  c #2E4365",
"(  c #2F4569",
")  c #314465",
"_  c #314669",
"`  c #354969",
"'  c #394B6C",
"]  c #494A4A",
"[  c #535759",
"{  c #6A5343",
"}  c #765B46",
"|  c #695F59",
" . c #7E634D",
".. c #7D6554",
"X. c #6D635D",
"o. c #636363",
"O. c #686A6B",
"+. c #687177",
"@. c #797979",
"#. c #636D79",
"$. c #804E1E",
"%. c #85511F",
"&. c #89531F",
"*. c #834F20",
"=. c #855121",
"-. c #8A5421",
";. c #807F35",
":. c #846349",
">. c #816651",
",. c #8A6D5B",
"<. c #876A57",
"1. c #94755C",
"2. c #A47B5B",
"3. c #947163",
"4. c #9B7B64",
"5. c #977A69",
"6. c #8B726B",
"7. c #A27E65",
"8. c #7F822B",
"9. c #838335",
"0. c #898B35",
"q. c #8E9035",
"w. c #93953A",
"e. c #9C9B41",
"r. c #BDBA54",
"t. c #B4B24C",
"y. c #A6846B",
"u. c #AA876C",
"i. c #B58D6F",
"p. c #B28D73",
"a. c #BA9179",
"s. c #B9957A",
"d. c #AD907B",
"f. c #C1BF53",
"g. c #C59D7E",
"h. c #C49976",
"j. c #C8C657",
"k. c #D2CF5B",
"l. c #DCDA5F",
"z. c #D7D55D",
"x. c #DEDA63",
"c. c #D9D761",
"v. c #E1DD63",
"b. c #E5E364",
"n. c #EDEB65",
"m. c #EEEB6A",
"M. c #E9E666",
"N. c #F6F469",
"B. c #FAF76B",
"V. c #FDFA6D",
"C. c #FEFC71",
"Z. c #F1EE6B",
"A. c #767D82",
"S. c #8B8B8B",
"D. c #878786",
"F. c #959797",
"G. c #828894",
"H. c #BD9A83",
"J. c #9D9FA0",
"K. c #A4A4A4",
"L. c #AAAAAB",
"P. c #BBBCBC",
"I. c #B5B6B6",
"U. c #C49D82",
"Y. c #C89F81",
"T. c #C8A185",
"R. c #D5AB8A",
"E. c #DAAE8C",
"W. c #D1A687",
"Q. c #DFB18F",
"!. c #D6AF92",
"~. c #DEB193",
"^. c #DEB298",
"/. c #CAA991",
"(. c #E1B38F",
"). c #E3B391",
"_. c #EAB996",
"`. c #ECBD9B",
"'. c #E6BA99",
"]. c #F1BF9B",
"[. c #EABDA1",
"{. c #EEC19E",
"}. c #F6C39D",
"|. c #F9C49E",
" X c #EFC1A1",
".X c #F5C4A2",
"XX c #FAC6A2",
"oX c #FDCAA4",
"OX c #FDCBA9",
"+X c #F6C8A5",
"@X c #FFD0A8",
"#X c #BBBEC2",
"$X c #C3C3C2",
"%X c #C8C8C8",
"&X c #D3D3D3",
"*X c #DADBDA",
"=X c #D7D7D8",
"-X c #D1D1D0",
";X c #E0E0DF",
":X c #EDECEC",
">X c #E3E4E4",
",X c #FFFFFF",
"<X c #FCFCFC",
"1X c #FEFDFD",
"2X c #F4F4F3",
/* pixels */
"                                                                                    ",
"                                                                                    ",
"                                                                                    ",
"                                                                                    ",
"                                                                                    ",
"                                                                                    ",
"                                      . . . . . .                                   ",
"                                  . . f z z l l l : . o                             ",
"                              . . g z $.-.%.%.&.%.l l l :                           ",
"                          . . g z %.%.%.$.%.%.%.%.-.-.&.z #                         ",
"                        . g l *.-.*.=.=.-.$.$.*.B N N %.N l :                       ",
"                      . g -.-.=.%.=.*.=.*.: . o . . . . . z N :                     ",
"                    . c =.%.%.$.$.*.N O . u.g.g.T.g.g.g.g.t . o                     ",
"                  + f -.%.%.%.%.*.: . p.W.}.@X|.oXoX|.@X|.W.g.t                     ",
"                  . z -.%.=.%.*.- y.U.].oX.X}.}.}.|.|.|.}.oX|.g.j                   ",
"                . g %.%.$.=.*.- u.+XOX.X}.|.|.|.|.|.|.}.|.|.}.<.. . .               ",
"                . x &.x &.N O u.}.XX}.}.|..X X.X}.{.XX}.oX}.V F.%X$X%X[             ",
"                . x %.%.x 1 u.|.XX.X}.|.].} d s s s R.oX'. .K.<X1XL.6.L.o.          ",
"                . x %.-.x . E.oX}..XXX].} J.#XP.#XI.X.Q..X. =X1X:X8 . &XS.          ",
"                . x &.=.x + W.|.}.XX`.} K.<X1X1X1X2X^ g..XO &X1X<X-X$X:XO.          ",
"                . z =.%.x . W.oX}.|.`.. *X1X1X2XF.O.L.../.a &X1X<X1X1X1Xo.          ",
"                . z -.=.p y._.|.|.|.].- *X1X1X:Xr . &X[ H.- -X1X<X<X1X2Xo.          ",
"                . N -.x . (.oX}.|.|.`.; =X1X1X<X%XP.>X] H.T.6.>X1X1X1XF..           ",
"                . z -.x . E.oX}.}.XX`.. *X1X<X1X1X1X<Xe T.5.. [ A.+.#.1.h           ",
"                . z -.N . !.|.}.}.}..Xp.@.:X1X1X1X<XF.1.'.H.d.: :.i.y._.}           ",
"                . z =.N . E.oX}.XX}.+X+Xu.o.A.@.A.+.1.'.XX3.| . W.OXOX|.M           ",
"                . p *.N . E.oX}.XX}.XX.X|.i.2.y.2.4.'.oX].p.y.u.(.|.|.XX{           ",
"                  . z *.. E.|.}.}.}.}.}.}.oX|.@XOXoX.XXX.XXXOXOX|.|.}.y.>           ",
"                    a z . Q.oX}.}.}.|.|.}.}.{.|.|.}.XXXX.X+X+XXXXXoX'.j             ",
"                      p . ~.oX}.|.}.}.|.|.}.|.|.}.oXXXoX].4.}  .<.~.+XM             ",
"                      X . ,._.|.|.|.|.}.}.|.|.|.].4.,.1.<.<.y.4.. U.g.#             ",
"                        .    .}.oX}.}.}.}.|.|.|.}.4.<.,.,.).oXXXd.<.&               ",
"                              ,.`.OXoX.X}.|.}.}.|.oXXXoXOXXX].+XH.>                 ",
"                                >.3.,.'.@X}.}.XX|.}.`..XXXOXXXp..                   ",
"                                . 8.q.,.5._.oXXXoXoXOXoXa.y.u.@                     ",
"                                A m.B.e.S >.3.3.,.3.3.4.. . .                       ",
"                              9.n.C.B.C.B.e.0.9.q.q.9..                             ",
"                            A Z.V.B.B.B.B.V.V.V.V.C.N.m                             ",
"                          . x.C.B.B.B.B.B.B.B.B.B.V.Z.<                             ",
"                          9.M.V.B.B.B.B.B.B.B.B.B.B.B.w.                            ",
"                        . b.V.B.B.B.B.B.B.B.B.B.B.B.V.B.C                           ",
"                        . l.V.B.B.B.B.B.B.B.B.B.B.B.C.Z.C                           ",
"                      , A M.V.B.B.B.B.B.B.B.B.V.B.B.B.N.C                           ",
"                      . k.V.B.B.B.B.B.B.B.B.B.B.B.N.B.N.C                           ",
"                      Z b.V.B.B.B.B.B.B.B.B.B.B.B.B.V.N.C                           ",
"                    . v.V.B.B.C.V.B.B.B.B.B.B.B.B.N.k.b.Z                           ",
"                    . v.V.C.B.r.n.V.B.B.B.B.B.B.V.n.k r.9.                          ",
"                    C M.V.B.j.C b.V.B.B.B.B.B.B.V.n.n r.9.                          ",
"                  . l.V.V.n.. l.C.B.B.B.B.B.B.B.V.m.n f.;.                          ",
"                  @ l.V.V.M., l.C.B.B.B.B.B.B.B.V.m.m f.9.                          ",
"                  @ b.C.C.m., l.C.B.B.B.B.B.B.B.V.n.m w.Z                           ",
"                  . t.k.c.r.. c.C.B.B.B.B.V.B.B.V.m.n i ,                           ",
"                  . 2 2 . @ v b.V.B.B.B.B.B.B.B.V.n.n p. .                          ",
"                  . !.{.+ z.B.B.V.B.B.B.B.B.B.B.V.n.m h.>.                          ",
"                  . Q.{.. v.V.B.B.B.B.B.B.B.B.B.V.n.m a.>.                          ",
"                  @ ~.`.X x.V.B.B.B.B.B.B.B.B.B.V.n.n a. .                          ",
"                  . E.`.. x.C.B.B.B.B.B.B.B.B.B.V.n.b a. .                          ",
"                  . ).{.X x.C.B.B.B.B.B.V.B.B.B.V.n.b a.>.                          ",
"                  . ).[.X v.C.B.V.B.B.B.B.B.B.B.V.n.n a. .                          ",
"                  . ~.`.X x.C.N.B.B.B.B.B.B.B.B.V.n.n a. .                          ",
"                  . ~.[.. x.C.B.B.B.B.B.B.B.B.B.V.n.n a. .                          ",
"                  . ~.[.X x.V.B.B.V.B.B.B.B.B.B.V.n.n a. .                          ",
"                  . ).[.X x.V.B.B.B.B.B.B.B.V.B.V.n.b a.>.                          ",
"                  . ~.[.. x.C.B.V.B.B.B.B.B.B.B.V.n.n a.>.                          ",
"                  . (.`.. v.C.B.B.B.B.B.B.B.B.N.B.n.b a.>.                          ",
"                  . ).`.X x.V.B.B.B.B.B.B.B.B.B.V.n.n a. .                          ",
"                  . ).'.X x.C.B.B.B.B.B.B.B.B.B.V.M.n a. .                          ",
"                  . ~.[.X x.C.N.B.B.B.B.B.N.B.B.B.m.n s. .                          ",
"                  . ^.[.. v.V.V.V.V.V.V.V.V.C.V.V.N.n a.>.                          ",
"                  . ~.[.. k.m.b.M.b.b.b.b.b.b.v.M.l.m a. .                          ",
"                  . ~.`.@ < k k k k k k v k k k k < . g.>.                          ",
"                  . ).`.@ L J G H H J H G H H K K J X a.E.t                         ",
"                . Y.XX).* R ` ` ` ` ) ^ 0 ^ ` ` ' ` R h W.M                         ",
"                . ).OX).> q ) / / / Y #   . E ) / / ) X a.M                         ",
"                . !.OX'.> 4 ) / / / ~ P   4 ~ ) / / ) P j =                         ",
"                . ~.oX).*   y ) / / ) U   4 P ) / / ( T .                           ",
"                . E._.} .   0 ) / / / Y     % R / / ( E *                           ",
"                # j j         w / / ( Y     . T _ / / ) 6                           ",
"                              q _ ~ / ~ 0   . P ) ) / _ P                           ",
"                              4 / / / ) Y .   4 E ) / _ R .                         ",
"                                y ) / _ Y .   $ T ) / _ / %                         ",
"                                8 / / / ~ q     + T / / / 4                         ",
"                                $ F / / _ U       w ) / _ F                         ",
"                                  9 _ / / Y       0 ) / ( U .                       ",
"                                  q ) ( _ U       & W / _ ! %                       ",
"                                  0 ) / _ U         E _ ( ( 0                       ",
"                                    P / _ T         W ) ( ( 0                       ",
"                                    4 / _ T         W ( ( _ 0                       ",
"                                    9 / _ U         W _ / _ 0                       ",
"                                    9 ( ( T         W _ / ) 0                       ",
"                                    9 ( _ T         E _ ) _ 0                       ",
"                                    9 / ( U         E _ / _ 0                       ",
"                                    9 ( ( U         T _ E ) 0                       ",
"                                    4 ( ( Y         3 ( / ) 8                       ",
"                                    U ( _ Y         3 ! ) ) 0                       ",
"                                  0 ( ( _ Y         3 ( ) _ 0                       ",
"                                  9 / ( W 4         3 ) / ( 0                       ",
"                                  q _ _ Y .         3 / ) / 4                       ",
"                                  q _ _ I .         3 ) ) ) 0                       ",
"                                  0 _ _ I .         3 ) _ W &                       ",
"                                  q ' ` P .         % W J 9                         ",
"                                  7 D Q U .         o * u r                         ",
"                                . O.#XG..           . O.$Xo.                        ",
"                                . ] P.D.            . * u * = .                     ",
"                                [ D.@.] .           r F.&X2X*XS.y                   ",
"                                S.1X1X&X@.o..       . =X1X1X1X<XO..                 ",
"                                S.1X1X1X1X>XK.D.    . K.:X*XI.D.r                   ",
"                                o.I.P.P.P.P.$XF..     u ] . .                       ",
"                                . . . . . . . .                                     ",
"                                                                                    ",
"                                                                                    ",
"                                                                                    ",
"                                                                                    ",
"                                                                                    "
};
